<svg version="1.1" id="Layer_1" xmlns="http://www.w3.org/2000/svg" xmlns:xlink="http://www.w3.org/1999/xlink" x="0px" y="0px"
	 width="100%" viewBox="0 0 800 484" enable-background="new 0 0 800 484" xml:space="preserve">
<path fill="#000000" opacity="1.000000" stroke="none" 
	d="
M469.000000,485.000000 
	C312.666656,485.000000 156.833328,485.000000 1.000000,485.000000 
	C1.000000,323.666656 1.000000,162.333328 1.000000,1.000000 
	C267.666656,1.000000 534.333313,1.000000 801.000000,1.000000 
	C801.000000,162.333328 801.000000,323.666656 801.000000,485.000000 
	C690.500000,485.000000 580.000000,485.000000 469.000000,485.000000 
M272.922028,448.678711 
	C269.293915,444.452026 265.665833,440.225342 261.829559,435.756134 
	C263.085175,435.250000 264.107605,434.800140 265.155640,434.421112 
	C280.121643,429.008698 284.606964,410.818604 274.328796,398.516113 
	C268.424835,391.449280 260.283691,391.622528 252.572266,391.162750 
	C241.945358,390.529144 231.247437,391.191833 220.590073,390.912506 
	C216.213943,390.797821 214.866745,392.139679 214.910843,396.556519 
	C215.118805,417.383911 215.001389,438.214508 215.000641,459.043976 
	C215.000198,471.537445 214.997787,471.442383 227.634659,471.054169 
	C230.803879,470.956818 232.112732,470.010223 232.035126,466.724548 
	C231.873871,459.896454 231.994873,453.061646 231.999603,446.229614 
	C232.005585,437.568909 234.620728,435.755310 242.610123,439.469238 
	C245.031631,440.594910 247.268723,442.731323 248.851288,444.935425 
	C254.156738,452.324524 259.091583,459.978729 264.262848,467.466156 
	C265.158356,468.762756 266.462006,470.645233 267.665680,470.714264 
	C273.553070,471.052032 279.470428,470.867279 286.518127,470.867279 
	C281.638550,463.018402 277.394775,456.192200 272.922028,448.678711 
M60.001930,232.500000 
	C60.000706,204.502289 60.019882,176.504532 59.948227,148.506989 
	C59.943863,146.802872 59.395252,143.700439 58.800514,143.625534 
	C55.049042,143.153061 51.145767,142.972351 47.456646,143.623917 
	C46.635292,143.768967 46.064083,147.623230 46.060753,149.770767 
	C45.983574,199.599960 46.000294,249.429291 46.000671,299.258606 
	C46.000801,316.423889 45.978931,333.589264 46.046677,350.754303 
	C46.052914,352.333771 46.474571,355.216949 46.981853,355.280731 
	C50.732113,355.752502 54.614784,356.049683 58.305832,355.461121 
	C59.166256,355.323914 59.925243,351.578003 59.930447,349.490448 
	C60.026730,310.827148 60.001530,272.163544 60.001930,232.500000 
M601.529541,471.000153 
	C604.483826,471.000153 607.438110,471.000153 611.039001,471.000153 
	C610.697083,469.018707 610.691101,467.721222 610.246887,466.596863 
	C601.812439,445.248260 593.401184,423.889862 584.821533,402.599426 
	C580.032043,390.714294 579.897583,390.929657 567.491394,390.907318 
	C563.779602,390.900635 562.330383,392.428589 561.134583,395.618530 
	C554.698608,412.787262 548.042542,429.873352 541.512512,447.007019 
	C538.594238,454.663971 535.793091,462.365509 532.626160,470.888336 
	C538.461792,470.888336 543.397644,471.016937 548.315247,470.774902 
	C549.247986,470.729004 550.497803,469.377899 550.932129,468.347076 
	C552.470764,464.694763 553.807556,460.949310 555.049561,457.182678 
	C555.998169,454.306213 557.569946,452.864014 560.831177,452.949554 
	C568.147278,453.141418 575.472961,453.078125 582.792603,452.973145 
	C585.418030,452.935486 587.074463,453.586151 587.996704,456.355469 
	C589.606018,461.187622 591.630615,465.881500 593.624146,471.000488 
	C595.971619,471.000488 598.282471,471.000488 601.529541,471.000153 
M373.998535,419.500183 
	C373.996979,427.992004 374.528229,436.533203 373.747864,444.952850 
	C373.406250,448.638489 371.307220,453.523651 368.414825,455.367035 
	C357.750397,462.163666 345.057495,454.532135 345.012024,441.866669 
	C344.964783,428.712921 345.000519,415.558868 345.000061,402.404968 
	C344.999664,390.801575 344.998779,390.974670 333.283386,390.912903 
	C329.106750,390.890900 327.820679,392.256805 327.936584,396.355499 
	C328.434143,413.953400 328.358337,431.573181 329.163483,449.154236 
	C329.542877,457.438293 333.310425,464.343689 341.421021,468.186981 
	C352.001984,473.200867 362.811615,473.167145 373.818970,470.130310 
	C382.256470,467.802490 387.401031,462.077942 389.485809,453.792847 
	C390.484192,449.825195 390.879425,445.621307 390.934357,441.516235 
	C391.110229,428.364685 391.154297,415.206940 390.955353,402.056061 
	C390.762634,389.315399 393.761078,391.186493 378.932648,390.992462 
	C376.282990,390.957794 375.026489,391.794678 374.957642,394.673920 
	C374.767548,402.619141 374.335114,410.558594 373.998535,419.500183 
M554.000000,293.500000 
	C553.999268,245.336212 553.930420,197.172165 554.101562,149.008987 
	C554.119019,144.111725 552.622986,142.652084 547.862671,142.883789 
	C543.679138,143.087402 540.849182,142.891403 540.867737,148.772812 
	C541.079712,215.934769 541.063782,283.097809 540.884216,350.259979 
	C540.870117,355.535797 542.994080,356.137115 547.362854,356.119324 
	C551.860229,356.101013 554.263733,355.637573 554.144653,349.993561 
	C553.754517,331.502930 553.999268,312.998901 554.000000,293.500000 
M750.000000,192.500000 
	C750.000061,244.326218 749.999023,296.152435 750.001160,347.978668 
	C750.001465,356.196960 750.008789,356.027313 758.115662,356.071259 
	C761.747986,356.090912 763.062378,355.020660 763.057373,351.245422 
	C762.967834,283.421539 762.939514,215.597412 763.085083,147.773727 
	C763.097717,141.872437 759.434631,143.167572 756.134644,142.992935 
	C752.538086,142.802597 749.787048,142.855072 749.897400,148.008331 
	C750.207764,162.499634 750.002197,177.001999 750.000000,192.500000 
M499.876801,427.056183 
	C502.170624,420.122498 502.611786,413.219879 500.175568,406.159302 
	C497.237579,397.644592 490.663666,392.349457 481.762451,392.016327 
	C470.645172,391.600189 459.512451,391.515839 448.406311,390.918030 
	C443.477295,390.652679 441.803375,392.032654 441.877716,397.242432 
	C442.177155,418.230133 441.902832,439.225220 442.037201,460.216309 
	C442.116638,472.623840 439.945160,470.710602 452.849976,471.053406 
	C456.649780,471.154388 458.237701,470.063110 458.071411,466.005096 
	C457.791931,459.186096 458.146576,452.342865 457.952667,445.517853 
	C457.852386,441.987671 459.224518,440.811981 462.628937,440.960175 
	C467.118439,441.155609 471.626068,441.096893 476.121033,440.972321 
	C486.232178,440.692139 494.364197,436.790253 499.876801,427.056183 
M255.999985,285.499817 
	C256.006226,291.332184 255.948273,297.165863 256.071167,302.995789 
	C256.096649,304.204926 256.699249,306.394470 257.195770,306.441376 
	C260.641449,306.767242 264.225983,307.091888 267.539459,306.372955 
	C268.428925,306.179962 268.936829,302.372620 268.940063,300.223419 
	C269.016266,249.731903 268.999634,199.240250 268.996124,148.748611 
	C268.996033,147.416031 269.109070,146.054672 268.872650,144.760971 
	C268.714874,143.897751 268.064514,142.454422 267.575470,142.429459 
	C264.111450,142.252670 260.529175,141.934189 257.228119,142.704575 
	C256.374023,142.903915 256.053070,146.815353 256.049866,149.022476 
	C255.984161,194.181549 256.000214,239.340759 255.999985,285.499817 
M345.000031,156.508133 
	C344.989044,152.842102 345.059998,149.172821 344.915466,145.512070 
	C344.874023,144.461365 344.279419,142.572083 343.820801,142.535309 
	C340.366394,142.258377 336.786346,141.902756 333.471863,142.618942 
	C332.580933,142.811447 332.063721,146.612885 332.060455,148.758698 
	C331.983643,199.251053 332.000305,249.743576 332.003815,300.236053 
	C332.003906,301.568665 331.891541,302.929657 332.126282,304.223969 
	C332.283203,305.089264 332.927612,306.538727 333.414032,306.563904 
	C336.877869,306.743011 340.459991,307.064270 343.761475,306.295898 
	C344.617310,306.096710 344.946686,302.189331 344.949707,299.984467 
	C345.015137,252.491608 344.999756,204.998672 345.000031,156.508133 
M737.783813,207.922485 
	C734.371521,210.189041 730.801086,212.259125 727.623291,214.816986 
	C726.317749,215.867783 725.125732,217.967560 725.120789,219.593918 
	C724.986938,263.588928 725.007080,307.584442 725.049377,351.579834 
	C725.050598,352.839661 725.455688,355.147095 725.873962,355.194672 
	C729.625854,355.621490 733.478760,356.039886 737.166016,355.511841 
	C738.041870,355.386383 738.925842,351.701385 738.932007,349.651062 
	C739.055908,308.156647 739.078308,266.661835 739.043274,225.167175 
	C739.038513,219.544540 738.617310,213.922272 737.783813,207.922485 
M661.906311,405.424652 
	C662.269592,407.149475 662.940063,408.872772 662.948547,410.599335 
	C663.029602,427.095154 662.998901,443.591492 662.999756,460.087708 
	C663.000305,471.112457 663.004089,470.892548 674.221741,471.104004 
	C678.874268,471.191742 680.142822,469.651611 680.089355,465.138367 
	C679.872375,446.811859 680.082397,428.480591 679.941101,410.152588 
	C679.911865,406.361633 680.931824,404.669891 684.996765,404.937744 
	C689.475891,405.232849 693.998474,404.823669 698.486389,405.043304 
	C702.033081,405.216888 703.349182,403.769928 703.014771,400.371033 
	C702.884949,399.050934 702.861694,397.690552 703.023010,396.377167 
	C703.523254,392.303253 701.944275,390.868103 697.735657,390.921448 
	C681.575317,391.126404 665.410034,390.904510 649.248169,391.035858 
	C639.203979,391.117493 640.078247,388.944611 639.977173,400.891144 
	C639.952148,403.856293 640.982117,405.082336 644.033081,405.027740 
	C649.693359,404.926331 655.358704,405.100067 661.906311,405.424652 
M83.000244,462.411743 
	C83.000862,445.250885 83.124504,428.088501 82.917480,410.930145 
	C82.864265,406.519287 83.944008,404.520538 88.720161,404.920654 
	C93.186554,405.294800 97.712234,404.900665 102.207878,405.008698 
	C105.002480,405.075836 106.175247,403.896698 105.995155,401.149323 
	C105.908188,399.822601 105.840652,398.463470 106.024857,397.155670 
	C106.688797,392.442047 104.946411,390.800415 100.011810,390.892456 
	C84.189331,391.187592 68.356735,390.886139 52.530251,391.040863 
	C42.160015,391.142273 43.069332,388.677673 42.967506,401.096100 
	C42.941486,404.269104 44.391834,405.091492 47.227757,405.017822 
	C51.723015,404.901062 56.239689,405.235382 60.717678,404.935883 
	C64.926239,404.654419 66.117783,406.282959 66.073364,410.366241 
	C65.888512,427.358521 65.933701,444.354279 66.021408,461.348114 
	C66.078285,472.367767 64.606255,470.874756 75.485123,470.984131 
	C82.965103,471.059387 82.965797,470.990204 83.000244,462.411743 
M763.000122,461.434814 
	C763.000122,441.604065 763.000183,421.773315 763.000122,401.942566 
	C763.000061,390.896454 762.995972,391.108246 751.806091,390.899719 
	C747.212524,390.814117 745.859924,392.248444 745.903931,396.818390 
	C746.114075,418.646820 745.960938,440.478546 746.012756,462.308899 
	C746.035767,472.015900 744.996277,470.972015 754.445862,470.971802 
	C764.036011,470.971619 762.871643,471.994598 763.000122,461.434814 
M84.999733,257.500000 
	C84.997932,245.516144 85.038544,233.531952 84.941422,221.548874 
	C84.929085,220.027115 84.690681,217.922943 83.708786,217.097122 
	C79.991409,213.970642 75.924721,211.259476 71.544693,208.069550 
	C71.312347,209.552658 71.037529,210.491058 71.036812,211.429672 
	C71.013306,242.221466 71.051147,273.013367 70.964821,303.804932 
	C70.955406,307.161407 72.330132,308.265900 75.438545,308.009430 
	C76.926216,307.886627 78.449120,307.850098 79.927498,308.021240 
	C83.838768,308.473969 85.116669,306.863403 85.068092,302.939240 
	C84.884712,288.128143 84.997696,273.313385 84.999733,257.500000 
M122.001045,299.414734 
	C122.243477,302.018951 121.870247,306.570984 122.839050,306.877197 
	C126.316513,307.976379 130.283554,307.980133 133.980423,307.590424 
	C134.829773,307.500885 135.911331,304.198151 135.920898,302.369080 
	C136.068481,274.102875 136.092834,245.835770 136.018433,217.569199 
	C136.011932,215.094360 135.114670,212.621872 134.543228,209.698502 
	C131.444977,212.036850 129.322922,214.403214 126.677628,215.461105 
	C122.388268,217.176453 121.912254,220.110291 121.933945,224.106354 
	C122.068443,248.881851 122.001228,273.658447 122.001045,299.414734 
M162.194931,391.020538 
	C160.528336,391.013519 158.861710,390.998566 157.195129,391.000885 
	C150.021240,391.010895 150.006317,391.012726 150.003601,397.947876 
	C149.995529,418.614136 149.875656,439.281433 150.045990,459.946289 
	C150.150909,472.674835 147.524414,470.817902 161.591629,470.986877 
	C161.758224,470.988892 161.926056,470.968719 162.091385,470.982239 
	C164.784348,471.201965 166.013977,470.110077 166.007416,467.264160 
	C165.951691,443.098206 166.018387,418.931763 165.854919,394.766785 
	C165.846512,393.524536 164.071899,392.294189 162.194931,391.020538 
M529.000000,246.500000 
	C529.000000,233.763382 529.000000,221.026749 529.000000,207.562805 
	C525.559021,209.861450 523.115906,211.827744 520.384766,213.235550 
	C516.759705,215.104202 515.904541,217.855499 515.925476,221.737778 
	C516.069580,248.400208 516.138550,275.065094 515.882568,301.725861 
	C515.833130,306.869751 517.376892,308.395477 522.372925,308.096558 
	C528.949707,307.703094 528.989929,308.006500 528.994507,301.493011 
	C529.007202,283.495331 528.999634,265.497681 529.000000,246.500000 
M687.000000,226.555573 
	C689.986450,215.869354 680.915527,213.198532 674.782532,207.832077 
	C674.443787,209.113861 674.074341,209.860977 674.073547,210.608521 
	C674.038452,241.869858 674.026062,273.131256 674.074036,304.392548 
	C674.075623,305.451569 674.650024,307.390686 675.086487,307.428436 
	C678.532043,307.726562 682.076660,308.040161 685.428284,307.440552 
	C686.257141,307.292236 686.924316,303.818481 686.932190,301.870361 
	C687.032715,277.094208 686.999329,252.317505 687.000000,226.555573 
M465.000000,286.499817 
	C465.000061,290.999390 464.997559,295.498993 465.000763,299.998566 
	C465.006592,308.201691 465.008911,308.028168 473.138184,308.071411 
	C476.797943,308.090851 478.076050,306.968964 478.059052,303.220367 
	C477.934418,275.723633 478.001160,248.226074 477.955505,220.728867 
	C477.953400,219.460602 477.893463,217.640015 477.111969,217.019836 
	C473.480377,214.137833 469.584869,211.588409 465.000000,208.369705 
	C465.000000,234.871399 465.000000,260.185669 465.000000,286.499817 
M503.000000,255.500000 
	C502.999908,246.666687 503.046783,237.833054 502.986389,229.000153 
	C502.927032,220.317322 503.968475,221.282806 494.860291,220.917328 
	C490.321350,220.735199 488.866119,222.152954 488.905518,226.787308 
	C489.112396,251.118835 488.956909,275.453217 489.022980,299.786316 
	C489.047668,308.873840 487.801086,307.714142 497.353424,308.075500 
	C501.646912,308.237885 503.169983,307.003967 503.094635,302.498291 
	C502.838257,287.169281 502.998718,271.833313 503.000000,255.500000 
M103.538666,307.998260 
	C110.989983,307.961731 110.993584,307.961731 110.999374,300.354706 
	C111.004562,293.538391 111.001282,286.722107 111.000618,279.905792 
	C110.998901,262.283142 110.898430,244.659561 111.069893,227.038620 
	C111.108284,223.092682 109.791473,221.512741 105.916321,221.987793 
	C104.933731,222.108231 103.909691,222.110733 102.928429,221.983871 
	C98.543472,221.416992 96.855392,222.931107 96.897957,227.690323 
	C97.120964,252.626022 97.106171,277.565613 96.907333,302.501740 
	C96.871666,306.974945 98.335411,308.628967 103.538666,307.998260 
M700.929077,307.837769 
	C701.925110,307.889557 702.920715,307.974823 703.917236,307.987823 
	C711.991882,308.093170 711.997559,308.089050 711.998535,299.969055 
	C712.001465,275.678711 712.005310,251.388382 711.988403,227.098068 
	C711.987061,225.164780 711.829102,223.231598 711.744446,221.309662 
	C707.299500,221.309662 703.385193,221.309662 699.346008,221.309662 
	C699.213318,222.406738 699.030823,223.214157 699.030273,224.021698 
	C699.012268,250.474792 698.995911,276.927948 699.053406,303.380920 
	C699.056458,304.777374 699.708557,306.172394 700.929077,307.837769 
M317.998199,198.539719 
	C318.980377,189.839264 311.853394,180.276581 300.091736,180.162155 
	C289.913574,180.063126 281.814453,187.474182 281.968109,198.894257 
	C282.118011,210.033691 288.539246,216.937958 299.162170,216.997421 
	C310.684570,217.061920 317.870850,210.359024 317.998199,198.539719 
M507.013397,184.422256 
	C500.776764,179.847626 494.057465,179.522980 487.388794,182.958908 
	C480.557800,186.478455 477.721222,192.474686 477.958832,200.168579 
	C478.217926,208.558044 484.127777,215.795685 492.744659,217.759964 
	C500.102570,219.437271 509.462982,214.539185 512.893616,207.216507 
	C516.332275,199.876678 513.907959,189.582153 507.013397,184.422256 
M712.286255,216.274445 
	C723.562744,210.735092 727.117493,199.847000 721.089355,189.310959 
	C716.600159,181.464752 706.675049,178.237015 698.313293,181.903992 
	C689.737976,185.664658 685.018555,195.545746 687.949890,204.066330 
	C691.282593,213.753738 697.084778,218.772339 712.286255,216.274445 
M115.976082,186.476364 
	C109.628693,180.849823 100.618034,180.143845 93.579010,184.721588 
	C86.980698,189.012695 84.098480,197.970978 86.655922,206.239227 
	C88.893936,213.474777 95.368660,218.818039 103.294426,218.837997 
	C110.349106,218.855743 117.151405,216.417938 121.028259,207.024506 
	C123.673340,200.615601 122.027542,192.636887 115.976082,186.476364 
M307.000366,290.497009 
	C307.006439,294.653015 306.929718,298.811798 307.069855,302.963257 
	C307.110992,304.182495 307.669464,306.380676 308.157043,306.428314 
	C311.593903,306.764069 315.143066,307.031982 318.491241,306.419281 
	C319.308472,306.269684 319.927856,302.768188 319.934906,300.805328 
	C320.029327,274.539642 320.003998,248.273483 319.986267,222.007477 
	C319.985199,220.439880 319.796631,218.872421 319.641724,216.475571 
	C315.982605,221.395081 312.732117,225.438919 309.877960,229.745453 
	C308.528137,231.782104 307.156647,234.311600 307.126587,236.634995 
	C306.898743,254.253571 307.001038,271.876404 307.000366,290.497009 
M281.000671,222.007050 
	C281.001434,248.446869 281.150452,274.888214 280.879578,301.325256 
	C280.824585,306.693573 283.175293,307.156708 287.444550,307.099335 
	C291.545166,307.044189 294.201843,306.961304 294.122284,301.439056 
	C293.813263,279.992340 294.004364,258.538513 293.980377,237.087341 
	C293.978729,235.604477 294.271973,233.735657 293.522583,232.704224 
	C289.732483,227.487686 285.642639,222.488953 281.375092,217.053650 
	C281.231171,218.640121 281.116577,219.903442 281.000671,222.007050 
M84.999588,157.508118 
	C84.998894,154.679657 84.730148,151.819809 85.056740,149.029648 
	C85.628059,144.148788 83.664803,142.259369 78.901657,142.987610 
	C78.251320,143.087051 77.562225,143.078323 76.908875,142.989227 
	C72.488846,142.386490 70.779144,143.980972 70.898109,148.717163 
	C71.207199,161.021561 70.988945,173.338928 71.018661,185.651016 
	C71.022469,187.231461 71.248817,188.811371 71.433350,191.177002 
	C75.147026,188.542221 78.065689,186.176422 81.265869,184.287567 
	C84.211624,182.548920 85.194870,180.321335 85.065178,176.971313 
	C84.827209,170.824478 84.998756,164.661774 84.999588,157.508118 
M739.009644,183.231186 
	C739.009766,172.906799 739.114807,162.581024 738.980103,152.258408 
	C738.848511,142.179703 741.031433,143.083176 729.142456,142.979919 
	C726.216187,142.954498 724.942017,143.915573 724.976440,146.997269 
	C725.091919,157.320312 724.979065,167.645828 725.077576,177.969223 
	C725.089050,179.173096 725.515259,180.834091 726.362854,181.489365 
	C730.097900,184.376953 734.057922,186.973602 738.651733,190.173981 
	C738.801025,187.651764 738.904968,185.895889 739.009644,183.231186 
M127.616386,143.003845 
	C123.339546,142.373230 121.762314,144.010666 121.908585,148.495697 
	C122.222496,158.120865 121.955360,167.763855 122.057732,177.398148 
	C122.073975,178.926758 122.272789,181.087082 123.251404,181.857224 
	C126.679909,184.555405 130.486404,186.773285 134.805191,189.603302 
	C135.259216,183.660736 135.859589,178.609360 135.981812,173.546432 
	C136.166199,165.909271 136.017990,158.264053 136.008850,150.622269 
	C135.999786,143.037201 135.998566,143.037201 127.616386,143.003845 
M520.873779,184.501862 
	C523.215210,186.222931 525.556580,187.943985 527.883728,189.654541 
	C528.321533,189.136154 528.699951,188.897507 528.701660,188.656265 
	C528.800720,174.394485 528.930054,160.131973 528.802185,145.871796 
	C528.793640,144.920059 526.951538,143.549973 525.713318,143.155334 
	C524.203613,142.674194 522.414917,143.160110 520.774231,142.979538 
	C517.039001,142.568420 515.869629,144.182709 515.942383,147.835266 
	C516.133850,157.456360 516.157837,167.087585 515.923523,176.706863 
	C515.835632,180.318680 516.960205,182.710922 520.873779,184.501862 
M465.000275,180.370117 
	C465.000275,183.100693 465.000275,185.831253 465.000275,189.181107 
	C469.499542,186.261444 473.106354,184.050415 476.538666,181.595428 
	C477.320465,181.036240 477.886169,179.636826 477.895233,178.618286 
	C477.991272,167.820129 478.203644,157.012665 477.851929,146.225113 
	C477.669281,140.623245 472.849518,143.635727 470.097534,143.074203 
	C466.338684,142.307205 464.838348,143.999985 464.927460,148.003189 
	C465.160400,158.465073 465.002380,168.935638 465.000275,180.370117 
M674.429871,188.044601 
	C678.479614,185.485229 682.563721,182.976883 686.533203,180.298553 
	C687.002441,179.981903 686.956055,178.733658 686.957764,177.916855 
	C686.979675,167.421722 687.081848,156.923447 686.801819,146.435623 
	C686.770630,145.268051 684.689514,143.719269 683.242859,143.148224 
	C681.800476,142.578857 679.950012,143.133438 678.296448,142.989304 
	C675.030396,142.704590 673.928711,144.138336 673.967041,147.343918 
	C674.126770,160.667542 674.111450,173.993271 674.429871,188.044601 
M71.006805,99.761475 
	C71.004234,106.761101 70.899178,113.762543 71.023560,120.759911 
	C71.202034,130.800583 68.941925,129.920593 80.900581,130.023178 
	C83.876984,130.048721 85.079002,128.998276 85.024765,125.957321 
	C84.896980,118.793442 85.114754,111.623138 84.970818,104.459892 
	C84.764931,94.214165 87.371597,95.034622 74.816864,94.988205 
	C72.040665,94.977943 70.791985,96.067978 71.006805,99.761475 
M739.009949,119.460297 
	C739.009949,114.316353 739.087219,109.171005 738.993408,104.028778 
	C738.813293,94.158768 740.780579,95.164047 729.475098,94.953178 
	C725.921448,94.886902 724.865112,96.277908 724.959106,99.635811 
	C725.135620,105.936249 725.002319,112.245300 725.001770,118.550766 
	C725.000671,130.939957 725.002075,130.942596 737.575378,129.740723 
	C737.864624,129.713074 738.130310,129.438492 739.009949,128.931702 
	C739.009949,126.329933 739.009949,123.386215 739.009949,119.460297 
M60.001942,111.501923 
	C60.001919,109.003609 60.042343,106.504532 59.994743,104.007126 
	C59.806770,94.145020 61.567265,95.197487 50.880157,94.945847 
	C47.239201,94.860107 45.814053,95.982018 45.940578,99.761665 
	C46.174492,106.749001 45.901798,113.751694 46.024620,120.744743 
	C46.201313,130.804672 43.962734,129.918579 55.876404,130.022430 
	C58.820175,130.048096 60.128410,129.061295 60.024353,125.989388 
	C59.872208,121.497826 59.995846,116.996925 60.001942,111.501923 
M97.394592,176.924835 
	C100.437363,177.280457 103.481178,177.627457 106.522636,177.993973 
	C110.049088,178.418961 111.124985,176.743759 111.044197,173.377899 
	C110.873100,166.249832 111.073929,159.113663 110.981804,151.982635 
	C110.854599,142.135452 112.537819,143.192688 101.925827,142.949707 
	C98.375984,142.868423 96.835709,143.838379 96.939697,147.678650 
	C97.195518,157.125580 97.100471,166.581985 97.394592,176.924835 
M687.076965,321.426697 
	C686.747192,322.152313 686.114380,322.885986 686.133423,323.602325 
	C686.397339,333.521820 686.677551,343.442871 687.204346,353.350159 
	C687.252747,354.261810 688.894531,355.557098 690.006409,355.835510 
	C691.728271,356.266754 693.643616,355.845215 695.454773,356.017761 
	C698.930176,356.348846 700.149963,354.877563 700.044861,351.432159 
	C699.852600,345.128632 700.139587,338.811005 699.969299,332.506195 
	C699.622681,319.673645 702.949951,320.862976 687.076965,321.426697 
M84.978638,352.173218 
	C84.985664,345.211639 85.091896,338.248444 84.976151,331.288910 
	C84.808037,321.180481 86.961746,322.115356 75.244278,321.965057 
	C71.967094,321.923035 70.900185,323.198853 70.966064,326.357208 
	C71.111214,333.315643 70.925880,340.280457 71.018021,347.240753 
	C71.144485,356.793427 69.432610,355.959747 80.288704,355.970642 
	C82.347626,355.972717 84.887001,356.474823 84.978638,352.173218 
M501.056488,143.162643 
	C498.737213,143.110336 496.403931,143.200516 494.101868,142.973587 
	C490.295135,142.598389 488.759979,143.964050 488.929840,147.977814 
	C489.210022,154.598648 488.900696,161.242035 489.023956,167.872482 
	C489.208252,177.784607 486.940155,176.927383 498.922607,177.023544 
	C501.887512,177.047333 503.082306,175.989624 503.023590,172.970139 
	C502.894623,166.340012 503.106659,159.702789 502.951447,153.073807 
	C502.876099,149.853867 502.287903,146.645935 501.056488,143.162643 
M756.504517,129.997955 
	C759.049438,129.500031 762.994751,131.587509 762.978027,126.401596 
	C762.948120,117.118111 763.096619,107.830528 762.811890,98.555656 
	C762.774780,97.347206 760.806274,95.749626 759.387939,95.158287 
	C757.973450,94.568535 756.113159,95.146721 754.470825,94.984695 
	C750.928955,94.635284 749.892334,96.280121 749.956726,99.631958 
	C750.115845,107.917946 750.235840,116.218140 749.911133,124.494568 
	C749.736633,128.942261 751.286194,130.639130 756.504517,129.997955 
M528.999878,336.504974 
	C528.989441,332.525787 529.262695,328.513763 528.807739,324.586060 
	C528.657532,323.289154 526.819275,321.753693 525.403564,321.159637 
	C523.991516,320.567108 522.128906,321.146729 520.486328,320.984650 
	C516.959961,320.636719 515.890076,322.245483 515.956116,325.616425 
	C516.118469,333.903381 516.233582,342.204590 515.911499,350.482300 
	C515.740112,354.886475 517.186401,356.636780 521.540710,356.020142 
	C522.679077,355.858917 523.867310,355.893646 525.017456,356.000854 
	C528.072998,356.285767 529.112183,354.875031 529.023987,351.925934 
	C528.880249,347.122101 528.994507,342.310547 528.999878,336.504974 
M702.760071,175.977722 
	C704.583252,175.977768 706.411438,175.892609 708.228516,175.997635 
	C711.016113,176.158722 712.036804,174.885727 712.009521,172.163986 
	C711.924988,163.711456 711.923401,155.257004 712.009216,146.804504 
	C712.037170,144.055008 710.956726,142.843292 708.196655,143.002045 
	C706.379395,143.106567 704.546387,143.109055 702.729309,143.003326 
	C699.905334,142.838989 698.963074,144.189865 698.989380,146.876450 
	C699.072083,155.329025 698.905273,163.786255 699.148682,172.232620 
	C699.185059,173.493240 700.906738,174.705292 702.760071,175.977722 
M282.941620,142.160461 
	C282.296509,143.832748 281.133606,145.492859 281.093964,147.179382 
	C280.899109,155.469467 281.002411,163.766541 281.000824,172.061157 
	C281.000275,174.943466 281.000763,177.825775 281.000763,180.708084 
	C284.008575,177.870773 285.218475,173.974304 287.863403,172.026917 
	C294.419647,167.199829 294.418854,160.749847 294.004517,153.884811 
	C293.964630,153.223648 294.012695,152.557678 293.997101,151.894470 
	C293.738831,140.888428 295.901123,142.014862 282.941620,142.160461 
M319.999329,167.483063 
	C319.998932,161.160675 320.010040,154.838272 319.994873,148.515930 
	C319.979248,141.994278 319.951782,142.280136 313.403870,141.906647 
	C308.496429,141.626724 306.371918,142.979843 306.913025,148.226746 
	C307.354431,152.507263 306.898010,156.873276 307.060944,161.193039 
	C307.127747,162.963745 307.283112,165.067673 308.248383,166.407516 
	C311.748077,171.265213 315.608215,175.863251 319.999329,181.400314 
	C319.999329,176.612549 319.999329,172.542633 319.999329,167.483063 
z"/>
<path fill="#800000" opacity="1.000000" stroke="none" 
	d="
M273.036499,449.022339 
	C277.394775,456.192200 281.638550,463.018402 286.518127,470.867279 
	C279.470428,470.867279 273.553070,471.052032 267.665680,470.714264 
	C266.462006,470.645233 265.158356,468.762756 264.262848,467.466156 
	C259.091583,459.978729 254.156738,452.324524 248.851288,444.935425 
	C247.268723,442.731323 245.031631,440.594910 242.610123,439.469238 
	C234.620728,435.755310 232.005585,437.568909 231.999603,446.229614 
	C231.994873,453.061646 231.873871,459.896454 232.035126,466.724548 
	C232.112732,470.010223 230.803879,470.956818 227.634659,471.054169 
	C214.997787,471.442383 215.000198,471.537445 215.000641,459.043976 
	C215.001389,438.214508 215.118805,417.383911 214.910843,396.556519 
	C214.866745,392.139679 216.213943,390.797821 220.590073,390.912506 
	C231.247437,391.191833 241.945358,390.529144 252.572266,391.162750 
	C260.283691,391.622528 268.424835,391.449280 274.328796,398.516113 
	C284.606964,410.818604 280.121643,429.008698 265.155640,434.421112 
	C264.107605,434.800140 263.085175,435.250000 261.829559,435.756134 
	C265.665833,440.225342 269.293915,444.452026 273.036499,449.022339 
M259.414948,408.007263 
	C250.995499,407.050690 242.582367,406.021301 234.143372,405.290161 
	C233.537048,405.237671 232.205902,407.329102 232.131989,408.482697 
	C231.877701,412.451752 231.747269,416.479340 232.193283,420.413910 
	C232.339783,421.706116 234.315872,423.704926 235.572678,423.798096 
	C240.858429,424.190155 246.194778,423.824554 251.501099,424.031403 
	C260.483398,424.381561 265.218689,417.013153 259.414948,408.007263 
z"/>
<path fill="#800000" opacity="1.000000" stroke="none" 
	d="
M60.001930,233.000000 
	C60.001530,272.163544 60.026730,310.827148 59.930447,349.490448 
	C59.925243,351.578003 59.166256,355.323914 58.305832,355.461121 
	C54.614784,356.049683 50.732113,355.752502 46.981853,355.280731 
	C46.474571,355.216949 46.052914,352.333771 46.046677,350.754303 
	C45.978931,333.589264 46.000801,316.423889 46.000671,299.258606 
	C46.000294,249.429291 45.983574,199.599960 46.060753,149.770767 
	C46.064083,147.623230 46.635292,143.768967 47.456646,143.623917 
	C51.145767,142.972351 55.049042,143.153061 58.800514,143.625534 
	C59.395252,143.700439 59.943863,146.802872 59.948227,148.506989 
	C60.019882,176.504532 60.000706,204.502289 60.001930,233.000000 
z"/>
<path fill="#800000" opacity="1.000000" stroke="none" 
	d="
M601.061462,471.000305 
	C598.282471,471.000488 595.971619,471.000488 593.624146,471.000488 
	C591.630615,465.881500 589.606018,461.187622 587.996704,456.355469 
	C587.074463,453.586151 585.418030,452.935486 582.792603,452.973145 
	C575.472961,453.078125 568.147278,453.141418 560.831177,452.949554 
	C557.569946,452.864014 555.998169,454.306213 555.049561,457.182678 
	C553.807556,460.949310 552.470764,464.694763 550.932129,468.347076 
	C550.497803,469.377899 549.247986,470.729004 548.315247,470.774902 
	C543.397644,471.016937 538.461792,470.888336 532.626160,470.888336 
	C535.793091,462.365509 538.594238,454.663971 541.512512,447.007019 
	C548.042542,429.873352 554.698608,412.787262 561.134583,395.618530 
	C562.330383,392.428589 563.779602,390.900635 567.491394,390.907318 
	C579.897583,390.929657 580.032043,390.714294 584.821533,402.599426 
	C593.401184,423.889862 601.812439,445.248260 610.246887,466.596863 
	C610.691101,467.721222 610.697083,469.018707 611.039001,471.000153 
	C607.438110,471.000153 604.483826,471.000153 601.061462,471.000305 
M577.509033,428.016357 
	C575.653320,423.173615 573.797668,418.330902 571.402283,412.079834 
	C568.079529,421.415436 565.269104,429.311676 562.128723,438.134918 
	C568.912109,438.134918 574.331482,438.134918 580.569580,438.134918 
	C579.462341,434.329254 578.647827,431.529785 577.509033,428.016357 
z"/>
<path fill="#800000" opacity="1.000000" stroke="none" 
	d="
M373.998535,419.000244 
	C374.335114,410.558594 374.767548,402.619141 374.957642,394.673920 
	C375.026489,391.794678 376.282990,390.957794 378.932648,390.992462 
	C393.761078,391.186493 390.762634,389.315399 390.955353,402.056061 
	C391.154297,415.206940 391.110229,428.364685 390.934357,441.516235 
	C390.879425,445.621307 390.484192,449.825195 389.485809,453.792847 
	C387.401031,462.077942 382.256470,467.802490 373.818970,470.130310 
	C362.811615,473.167145 352.001984,473.200867 341.421021,468.186981 
	C333.310425,464.343689 329.542877,457.438293 329.163483,449.154236 
	C328.358337,431.573181 328.434143,413.953400 327.936584,396.355499 
	C327.820679,392.256805 329.106750,390.890900 333.283386,390.912903 
	C344.998779,390.974670 344.999664,390.801575 345.000061,402.404968 
	C345.000519,415.558868 344.964783,428.712921 345.012024,441.866669 
	C345.057495,454.532135 357.750397,462.163666 368.414825,455.367035 
	C371.307220,453.523651 373.406250,448.638489 373.747864,444.952850 
	C374.528229,436.533203 373.996979,427.992004 373.998535,419.000244 
z"/>
<path fill="#800000" opacity="1.000000" stroke="none" 
	d="
M554.000000,294.000000 
	C553.999268,312.998901 553.754517,331.502930 554.144653,349.993561 
	C554.263733,355.637573 551.860229,356.101013 547.362854,356.119324 
	C542.994080,356.137115 540.870117,355.535797 540.884216,350.259979 
	C541.063782,283.097809 541.079712,215.934769 540.867737,148.772812 
	C540.849182,142.891403 543.679138,143.087402 547.862671,142.883789 
	C552.622986,142.652084 554.119019,144.111725 554.101562,149.008987 
	C553.930420,197.172165 553.999268,245.336212 554.000000,294.000000 
z"/>
<path fill="#800000" opacity="1.000000" stroke="none" 
	d="
M750.000000,192.000000 
	C750.002197,177.001999 750.207764,162.499634 749.897400,148.008331 
	C749.787048,142.855072 752.538086,142.802597 756.134644,142.992935 
	C759.434631,143.167572 763.097717,141.872437 763.085083,147.773727 
	C762.939514,215.597412 762.967834,283.421539 763.057373,351.245422 
	C763.062378,355.020660 761.747986,356.090912 758.115662,356.071259 
	C750.008789,356.027313 750.001465,356.196960 750.001160,347.978668 
	C749.999023,296.152435 750.000061,244.326218 750.000000,192.000000 
z"/>
<path fill="#800000" opacity="1.000000" stroke="none" 
	d="
M499.740295,427.421448 
	C494.364197,436.790253 486.232178,440.692139 476.121033,440.972321 
	C471.626068,441.096893 467.118439,441.155609 462.628937,440.960175 
	C459.224518,440.811981 457.852386,441.987671 457.952667,445.517853 
	C458.146576,452.342865 457.791931,459.186096 458.071411,466.005096 
	C458.237701,470.063110 456.649780,471.154388 452.849976,471.053406 
	C439.945160,470.710602 442.116638,472.623840 442.037201,460.216309 
	C441.902832,439.225220 442.177155,418.230133 441.877716,397.242432 
	C441.803375,392.032654 443.477295,390.652679 448.406311,390.918030 
	C459.512451,391.515839 470.645172,391.600189 481.762451,392.016327 
	C490.663666,392.349457 497.237579,397.644592 500.175568,406.159302 
	C502.611786,413.219879 502.170624,420.122498 499.740295,427.421448 
M484.701324,415.580963 
	C482.652069,407.998901 480.119019,406.144836 471.990204,405.962494 
	C469.861908,405.914764 467.739777,405.441315 465.621613,405.118774 
	C458.985504,404.108154 458.030273,404.896942 458.002014,411.482941 
	C457.994873,413.147003 457.999878,414.811127 457.999908,416.475220 
	C458.000122,428.062225 458.001953,428.080078 469.584595,426.948944 
	C476.609009,426.262909 483.258270,424.986237 484.701324,415.580963 
z"/>
<path fill="#800000" opacity="1.000000" stroke="none" 
	d="
M255.999985,284.999878 
	C256.000214,239.340759 255.984161,194.181549 256.049866,149.022476 
	C256.053070,146.815353 256.374023,142.903915 257.228119,142.704575 
	C260.529175,141.934189 264.111450,142.252670 267.575470,142.429459 
	C268.064514,142.454422 268.714874,143.897751 268.872650,144.760971 
	C269.109070,146.054672 268.996033,147.416031 268.996124,148.748611 
	C268.999634,199.240250 269.016266,249.731903 268.940063,300.223419 
	C268.936829,302.372620 268.428925,306.179962 267.539459,306.372955 
	C264.225983,307.091888 260.641449,306.767242 257.195770,306.441376 
	C256.699249,306.394470 256.096649,304.204926 256.071167,302.995789 
	C255.948273,297.165863 256.006226,291.332184 255.999985,284.999878 
z"/>
<path fill="#800000" opacity="1.000000" stroke="none" 
	d="
M345.000000,157.006927 
	C344.999756,204.998672 345.015137,252.491608 344.949707,299.984467 
	C344.946686,302.189331 344.617310,306.096710 343.761475,306.295898 
	C340.459991,307.064270 336.877869,306.743011 333.414032,306.563904 
	C332.927612,306.538727 332.283203,305.089264 332.126282,304.223969 
	C331.891541,302.929657 332.003906,301.568665 332.003815,300.236053 
	C332.000305,249.743576 331.983643,199.251053 332.060455,148.758698 
	C332.063721,146.612885 332.580933,142.811447 333.471863,142.618942 
	C336.786346,141.902756 340.366394,142.258377 343.820801,142.535309 
	C344.279419,142.572083 344.874023,144.461365 344.915466,145.512070 
	C345.059998,149.172821 344.989044,152.842102 345.000000,157.006927 
z"/>
<path fill="#800000" opacity="1.000000" stroke="none" 
	d="
M738.086365,208.111160 
	C738.617310,213.922272 739.038513,219.544540 739.043274,225.167175 
	C739.078308,266.661835 739.055908,308.156647 738.932007,349.651062 
	C738.925842,351.701385 738.041870,355.386383 737.166016,355.511841 
	C733.478760,356.039886 729.625854,355.621490 725.873962,355.194672 
	C725.455688,355.147095 725.050598,352.839661 725.049377,351.579834 
	C725.007080,307.584442 724.986938,263.588928 725.120789,219.593918 
	C725.125732,217.967560 726.317749,215.867783 727.623291,214.816986 
	C730.801086,212.259125 734.371521,210.189041 738.086365,208.111160 
z"/>
<path fill="#800000" opacity="1.000000" stroke="none" 
	d="
M661.464111,405.291931 
	C655.358704,405.100067 649.693359,404.926331 644.033081,405.027740 
	C640.982117,405.082336 639.952148,403.856293 639.977173,400.891144 
	C640.078247,388.944611 639.203979,391.117493 649.248169,391.035858 
	C665.410034,390.904510 681.575317,391.126404 697.735657,390.921448 
	C701.944275,390.868103 703.523254,392.303253 703.023010,396.377167 
	C702.861694,397.690552 702.884949,399.050934 703.014771,400.371033 
	C703.349182,403.769928 702.033081,405.216888 698.486389,405.043304 
	C693.998474,404.823669 689.475891,405.232849 684.996765,404.937744 
	C680.931824,404.669891 679.911865,406.361633 679.941101,410.152588 
	C680.082397,428.480591 679.872375,446.811859 680.089355,465.138367 
	C680.142822,469.651611 678.874268,471.191742 674.221741,471.104004 
	C663.004089,470.892548 663.000305,471.112457 662.999756,460.087708 
	C662.998901,443.591492 663.029602,427.095154 662.948547,410.599335 
	C662.940063,408.872772 662.269592,407.149475 661.464111,405.291931 
z"/>
<path fill="#800000" opacity="1.000000" stroke="none" 
	d="
M83.000137,462.895447 
	C82.965797,470.990204 82.965103,471.059387 75.485123,470.984131 
	C64.606255,470.874756 66.078285,472.367767 66.021408,461.348114 
	C65.933701,444.354279 65.888512,427.358521 66.073364,410.366241 
	C66.117783,406.282959 64.926239,404.654419 60.717678,404.935883 
	C56.239689,405.235382 51.723015,404.901062 47.227757,405.017822 
	C44.391834,405.091492 42.941486,404.269104 42.967506,401.096100 
	C43.069332,388.677673 42.160015,391.142273 52.530251,391.040863 
	C68.356735,390.886139 84.189331,391.187592 100.011810,390.892456 
	C104.946411,390.800415 106.688797,392.442047 106.024857,397.155670 
	C105.840652,398.463470 105.908188,399.822601 105.995155,401.149323 
	C106.175247,403.896698 105.002480,405.075836 102.207878,405.008698 
	C97.712234,404.900665 93.186554,405.294800 88.720161,404.920654 
	C83.944008,404.520538 82.864265,406.519287 82.917480,410.930145 
	C83.124504,428.088501 83.000862,445.250885 83.000137,462.895447 
z"/>
<path fill="#800000" opacity="1.000000" stroke="none" 
	d="
M763.000122,461.923126 
	C762.871643,471.994598 764.036011,470.971619 754.445862,470.971802 
	C744.996277,470.972015 746.035767,472.015900 746.012756,462.308899 
	C745.960938,440.478546 746.114075,418.646820 745.903931,396.818390 
	C745.859924,392.248444 747.212524,390.814117 751.806091,390.899719 
	C762.995972,391.108246 763.000061,390.896454 763.000122,401.942566 
	C763.000183,421.773315 763.000122,441.604065 763.000122,461.923126 
z"/>
<path fill="#800000" opacity="1.000000" stroke="none" 
	d="
M84.999733,258.000000 
	C84.997696,273.313385 84.884712,288.128143 85.068092,302.939240 
	C85.116669,306.863403 83.838768,308.473969 79.927498,308.021240 
	C78.449120,307.850098 76.926216,307.886627 75.438545,308.009430 
	C72.330132,308.265900 70.955406,307.161407 70.964821,303.804932 
	C71.051147,273.013367 71.013306,242.221466 71.036812,211.429672 
	C71.037529,210.491058 71.312347,209.552658 71.544693,208.069550 
	C75.924721,211.259476 79.991409,213.970642 83.708786,217.097122 
	C84.690681,217.922943 84.929085,220.027115 84.941422,221.548874 
	C85.038544,233.531952 84.997932,245.516144 84.999733,258.000000 
z"/>
<path fill="#810000" opacity="1.000000" stroke="none" 
	d="
M122.001007,298.924713 
	C122.001228,273.658447 122.068443,248.881851 121.933945,224.106354 
	C121.912254,220.110291 122.388268,217.176453 126.677628,215.461105 
	C129.322922,214.403214 131.444977,212.036850 134.543228,209.698502 
	C135.114670,212.621872 136.011932,215.094360 136.018433,217.569199 
	C136.092834,245.835770 136.068481,274.102875 135.920898,302.369080 
	C135.911331,304.198151 134.829773,307.500885 133.980423,307.590424 
	C130.283554,307.980133 126.316513,307.976379 122.839050,306.877197 
	C121.870247,306.570984 122.243477,302.018951 122.001007,298.924713 
z"/>
<path fill="#800000" opacity="1.000000" stroke="none" 
	d="
M162.657257,391.039429 
	C164.071899,392.294189 165.846512,393.524536 165.854919,394.766785 
	C166.018387,418.931763 165.951691,443.098206 166.007416,467.264160 
	C166.013977,470.110077 164.784348,471.201965 162.091385,470.982239 
	C161.926056,470.968719 161.758224,470.988892 161.591629,470.986877 
	C147.524414,470.817902 150.150909,472.674835 150.045990,459.946289 
	C149.875656,439.281433 149.995529,418.614136 150.003601,397.947876 
	C150.006317,391.012726 150.021240,391.010895 157.195129,391.000885 
	C158.861710,390.998566 160.528336,391.013519 162.657257,391.039429 
z"/>
<path fill="#800000" opacity="1.000000" stroke="none" 
	d="
M529.000000,247.000000 
	C528.999634,265.497681 529.007202,283.495331 528.994507,301.493011 
	C528.989929,308.006500 528.949707,307.703094 522.372925,308.096558 
	C517.376892,308.395477 515.833130,306.869751 515.882568,301.725861 
	C516.138550,275.065094 516.069580,248.400208 515.925476,221.737778 
	C515.904541,217.855499 516.759705,215.104202 520.384766,213.235550 
	C523.115906,211.827744 525.559021,209.861450 529.000000,207.562805 
	C529.000000,221.026749 529.000000,233.763382 529.000000,247.000000 
z"/>
<path fill="#800000" opacity="1.000000" stroke="none" 
	d="
M687.000000,227.048248 
	C686.999329,252.317505 687.032715,277.094208 686.932190,301.870361 
	C686.924316,303.818481 686.257141,307.292236 685.428284,307.440552 
	C682.076660,308.040161 678.532043,307.726562 675.086487,307.428436 
	C674.650024,307.390686 674.075623,305.451569 674.074036,304.392548 
	C674.026062,273.131256 674.038452,241.869858 674.073547,210.608521 
	C674.074341,209.860977 674.443787,209.113861 674.782532,207.832077 
	C680.915527,213.198532 689.986450,215.869354 687.000000,227.048248 
z"/>
<path fill="#800000" opacity="1.000000" stroke="none" 
	d="
M465.000000,285.999878 
	C465.000000,260.185669 465.000000,234.871399 465.000000,208.369705 
	C469.584869,211.588409 473.480377,214.137833 477.111969,217.019836 
	C477.893463,217.640015 477.953400,219.460602 477.955505,220.728867 
	C478.001160,248.226074 477.934418,275.723633 478.059052,303.220367 
	C478.076050,306.968964 476.797943,308.090851 473.138184,308.071411 
	C465.008911,308.028168 465.006592,308.201691 465.000763,299.998566 
	C464.997559,295.498993 465.000061,290.999390 465.000000,285.999878 
z"/>
<path fill="#800000" opacity="1.000000" stroke="none" 
	d="
M503.000000,256.000000 
	C502.998718,271.833313 502.838257,287.169281 503.094635,302.498291 
	C503.169983,307.003967 501.646912,308.237885 497.353424,308.075500 
	C487.801086,307.714142 489.047668,308.873840 489.022980,299.786316 
	C488.956909,275.453217 489.112396,251.118835 488.905518,226.787308 
	C488.866119,222.152954 490.321350,220.735199 494.860291,220.917328 
	C503.968475,221.282806 502.927032,220.317322 502.986389,229.000153 
	C503.046783,237.833054 502.999908,246.666687 503.000000,256.000000 
z"/>
<path fill="#800000" opacity="1.000000" stroke="none" 
	d="
M103.078217,307.997467 
	C98.335411,308.628967 96.871666,306.974945 96.907333,302.501740 
	C97.106171,277.565613 97.120964,252.626022 96.897957,227.690323 
	C96.855392,222.931107 98.543472,221.416992 102.928429,221.983871 
	C103.909691,222.110733 104.933731,222.108231 105.916321,221.987793 
	C109.791473,221.512741 111.108284,223.092682 111.069893,227.038620 
	C110.898430,244.659561 110.998901,262.283142 111.000618,279.905792 
	C111.001282,286.722107 111.004562,293.538391 110.999374,300.354706 
	C110.993584,307.961731 110.989983,307.961731 103.078217,307.997467 
z"/>
<path fill="#800000" opacity="1.000000" stroke="none" 
	d="
M700.493774,307.702942 
	C699.708557,306.172394 699.056458,304.777374 699.053406,303.380920 
	C698.995911,276.927948 699.012268,250.474792 699.030273,224.021698 
	C699.030823,223.214157 699.213318,222.406738 699.346008,221.309662 
	C703.385193,221.309662 707.299500,221.309662 711.744446,221.309662 
	C711.829102,223.231598 711.987061,225.164780 711.988403,227.098068 
	C712.005310,251.388382 712.001465,275.678711 711.998535,299.969055 
	C711.997559,308.089050 711.991882,308.093170 703.917236,307.987823 
	C702.920715,307.974823 701.925110,307.889557 700.493774,307.702942 
z"/>
<path fill="#800000" opacity="1.000000" stroke="none" 
	d="
M317.998260,198.984009 
	C317.870850,210.359024 310.684570,217.061920 299.162170,216.997421 
	C288.539246,216.937958 282.118011,210.033691 281.968109,198.894257 
	C281.814453,187.474182 289.913574,180.063126 300.091736,180.162155 
	C311.853394,180.276581 318.980377,189.839264 317.998260,198.984009 
z"/>
<path fill="#800000" opacity="1.000000" stroke="none" 
	d="
M507.319519,184.634674 
	C513.907959,189.582153 516.332275,199.876678 512.893616,207.216507 
	C509.462982,214.539185 500.102570,219.437271 492.744659,217.759964 
	C484.127777,215.795685 478.217926,208.558044 477.958832,200.168579 
	C477.721222,192.474686 480.557800,186.478455 487.388794,182.958908 
	C494.057465,179.522980 500.776764,179.847626 507.319519,184.634674 
z"/>
<path fill="#800000" opacity="1.000000" stroke="none" 
	d="
M711.926636,216.483047 
	C697.084778,218.772339 691.282593,213.753738 687.949890,204.066330 
	C685.018555,195.545746 689.737976,185.664658 698.313293,181.903992 
	C706.675049,178.237015 716.600159,181.464752 721.089355,189.310959 
	C727.117493,199.847000 723.562744,210.735092 711.926636,216.483047 
z"/>
<path fill="#800000" opacity="1.000000" stroke="none" 
	d="
M116.235405,186.736633 
	C122.027542,192.636887 123.673340,200.615601 121.028259,207.024506 
	C117.151405,216.417938 110.349106,218.855743 103.294426,218.837997 
	C95.368660,218.818039 88.893936,213.474777 86.655922,206.239227 
	C84.098480,197.970978 86.980698,189.012695 93.579010,184.721588 
	C100.618034,180.143845 109.628693,180.849823 116.235405,186.736633 
z"/>
<path fill="#800000" opacity="1.000000" stroke="none" 
	d="
M307.000366,289.997467 
	C307.001038,271.876404 306.898743,254.253571 307.126587,236.634995 
	C307.156647,234.311600 308.528137,231.782104 309.877960,229.745453 
	C312.732117,225.438919 315.982605,221.395081 319.641724,216.475571 
	C319.796631,218.872421 319.985199,220.439880 319.986267,222.007477 
	C320.003998,248.273483 320.029327,274.539642 319.934906,300.805328 
	C319.927856,302.768188 319.308472,306.269684 318.491241,306.419281 
	C315.143066,307.031982 311.593903,306.764069 308.157043,306.428314 
	C307.669464,306.380676 307.110992,304.182495 307.069855,302.963257 
	C306.929718,298.811798 307.006439,294.653015 307.000366,289.997467 
z"/>
<path fill="#800000" opacity="1.000000" stroke="none" 
	d="
M281.001343,221.586899 
	C281.116577,219.903442 281.231171,218.640121 281.375092,217.053650 
	C285.642639,222.488953 289.732483,227.487686 293.522583,232.704224 
	C294.271973,233.735657 293.978729,235.604477 293.980377,237.087341 
	C294.004364,258.538513 293.813263,279.992340 294.122284,301.439056 
	C294.201843,306.961304 291.545166,307.044189 287.444550,307.099335 
	C283.175293,307.156708 280.824585,306.693573 280.879578,301.325256 
	C281.150452,274.888214 281.001434,248.446869 281.001343,221.586899 
z"/>
<path fill="#800000" opacity="1.000000" stroke="none" 
	d="
M84.999588,158.006897 
	C84.998756,164.661774 84.827209,170.824478 85.065178,176.971313 
	C85.194870,180.321335 84.211624,182.548920 81.265869,184.287567 
	C78.065689,186.176422 75.147026,188.542221 71.433350,191.177002 
	C71.248817,188.811371 71.022469,187.231461 71.018661,185.651016 
	C70.988945,173.338928 71.207199,161.021561 70.898109,148.717163 
	C70.779144,143.980972 72.488846,142.386490 76.908875,142.989227 
	C77.562225,143.078323 78.251320,143.087051 78.901657,142.987610 
	C83.664803,142.259369 85.628059,144.148788 85.056740,149.029648 
	C84.730148,151.819809 84.998894,154.679657 84.999588,158.006897 
z"/>
<path fill="#800000" opacity="1.000000" stroke="none" 
	d="
M739.009277,183.685608 
	C738.904968,185.895889 738.801025,187.651764 738.651733,190.173981 
	C734.057922,186.973602 730.097900,184.376953 726.362854,181.489365 
	C725.515259,180.834091 725.089050,179.173096 725.077576,177.969223 
	C724.979065,167.645828 725.091919,157.320312 724.976440,146.997269 
	C724.942017,143.915573 726.216187,142.954498 729.142456,142.979919 
	C741.031433,143.083176 738.848511,142.179703 738.980103,152.258408 
	C739.114807,162.581024 739.009766,172.906799 739.009277,183.685608 
z"/>
<path fill="#810000" opacity="1.000000" stroke="none" 
	d="
M128.077255,143.003052 
	C135.998566,143.037201 135.999786,143.037201 136.008850,150.622269 
	C136.017990,158.264053 136.166199,165.909271 135.981812,173.546432 
	C135.859589,178.609360 135.259216,183.660736 134.805191,189.603302 
	C130.486404,186.773285 126.679909,184.555405 123.251404,181.857224 
	C122.272789,181.087082 122.073975,178.926758 122.057732,177.398148 
	C121.955360,167.763855 122.222496,158.120865 121.908585,148.495697 
	C121.762314,144.010666 123.339546,142.373230 128.077255,143.003052 
z"/>
<path fill="#800000" opacity="1.000000" stroke="none" 
	d="
M520.546082,184.317902 
	C516.960205,182.710922 515.835632,180.318680 515.923523,176.706863 
	C516.157837,167.087585 516.133850,157.456360 515.942383,147.835266 
	C515.869629,144.182709 517.039001,142.568420 520.774231,142.979538 
	C522.414917,143.160110 524.203613,142.674194 525.713318,143.155334 
	C526.951538,143.549973 528.793640,144.920059 528.802185,145.871796 
	C528.930054,160.131973 528.800720,174.394485 528.701660,188.656265 
	C528.699951,188.897507 528.321533,189.136154 527.883728,189.654541 
	C525.556580,187.943985 523.215210,186.222931 520.546082,184.317902 
z"/>
<path fill="#800000" opacity="1.000000" stroke="none" 
	d="
M465.000244,179.886444 
	C465.002380,168.935638 465.160400,158.465073 464.927460,148.003189 
	C464.838348,143.999985 466.338684,142.307205 470.097534,143.074203 
	C472.849518,143.635727 477.669281,140.623245 477.851929,146.225113 
	C478.203644,157.012665 477.991272,167.820129 477.895233,178.618286 
	C477.886169,179.636826 477.320465,181.036240 476.538666,181.595428 
	C473.106354,184.050415 469.499542,186.261444 465.000275,189.181107 
	C465.000275,185.831253 465.000275,183.100693 465.000244,179.886444 
z"/>
<path fill="#800000" opacity="1.000000" stroke="none" 
	d="
M674.295166,187.681412 
	C674.111450,173.993271 674.126770,160.667542 673.967041,147.343918 
	C673.928711,144.138336 675.030396,142.704590 678.296448,142.989304 
	C679.950012,143.133438 681.800476,142.578857 683.242859,143.148224 
	C684.689514,143.719269 686.770630,145.268051 686.801819,146.435623 
	C687.081848,156.923447 686.979675,167.421722 686.957764,177.916855 
	C686.956055,178.733658 687.002441,179.981903 686.533203,180.298553 
	C682.563721,182.976883 678.479614,185.485229 674.295166,187.681412 
z"/>
<path fill="#800000" opacity="1.000000" stroke="none" 
	d="
M71.013641,99.294128 
	C70.791985,96.067978 72.040665,94.977943 74.816864,94.988205 
	C87.371597,95.034622 84.764931,94.214165 84.970818,104.459892 
	C85.114754,111.623138 84.896980,118.793442 85.024765,125.957321 
	C85.079002,128.998276 83.876984,130.048721 80.900581,130.023178 
	C68.941925,129.920593 71.202034,130.800583 71.023560,120.759911 
	C70.899178,113.762543 71.004234,106.761101 71.013641,99.294128 
z"/>
<path fill="#800000" opacity="1.000000" stroke="none" 
	d="
M739.009949,119.951393 
	C739.009949,123.386215 739.009949,126.329933 739.009949,128.931702 
	C738.130310,129.438492 737.864624,129.713074 737.575378,129.740723 
	C725.002075,130.942596 725.000671,130.939957 725.001770,118.550766 
	C725.002319,112.245300 725.135620,105.936249 724.959106,99.635811 
	C724.865112,96.277908 725.921448,94.886902 729.475098,94.953178 
	C740.780579,95.164047 738.813293,94.158768 738.993408,104.028778 
	C739.087219,109.171005 739.009949,114.316353 739.009949,119.951393 
z"/>
<path fill="#800000" opacity="1.000000" stroke="none" 
	d="
M60.001942,112.000961 
	C59.995846,116.996925 59.872208,121.497826 60.024353,125.989388 
	C60.128410,129.061295 58.820175,130.048096 55.876404,130.022430 
	C43.962734,129.918579 46.201313,130.804672 46.024620,120.744743 
	C45.901798,113.751694 46.174492,106.749001 45.940578,99.761665 
	C45.814053,95.982018 47.239201,94.860107 50.880157,94.945847 
	C61.567265,95.197487 59.806770,94.145020 59.994743,104.007126 
	C60.042343,106.504532 60.001919,109.003609 60.001942,112.000961 
z"/>
<path fill="#800000" opacity="1.000000" stroke="none" 
	d="
M97.270561,176.479706 
	C97.100471,166.581985 97.195518,157.125580 96.939697,147.678650 
	C96.835709,143.838379 98.375984,142.868423 101.925827,142.949707 
	C112.537819,143.192688 110.854599,142.135452 110.981804,151.982635 
	C111.073929,159.113663 110.873100,166.249832 111.044197,173.377899 
	C111.124985,176.743759 110.049088,178.418961 106.522636,177.993973 
	C103.481178,177.627457 100.437363,177.280457 97.270561,176.479706 
z"/>
<path fill="#800000" opacity="1.000000" stroke="none" 
	d="
M687.515930,321.293396 
	C702.949951,320.862976 699.622681,319.673645 699.969299,332.506195 
	C700.139587,338.811005 699.852600,345.128632 700.044861,351.432159 
	C700.149963,354.877563 698.930176,356.348846 695.454773,356.017761 
	C693.643616,355.845215 691.728271,356.266754 690.006409,355.835510 
	C688.894531,355.557098 687.252747,354.261810 687.204346,353.350159 
	C686.677551,343.442871 686.397339,333.521820 686.133423,323.602325 
	C686.114380,322.885986 686.747192,322.152313 687.515930,321.293396 
z"/>
<path fill="#800000" opacity="1.000000" stroke="none" 
	d="
M84.960205,352.637695 
	C84.887001,356.474823 82.347626,355.972717 80.288704,355.970642 
	C69.432610,355.959747 71.144485,356.793427 71.018021,347.240753 
	C70.925880,340.280457 71.111214,333.315643 70.966064,326.357208 
	C70.900185,323.198853 71.967094,321.923035 75.244278,321.965057 
	C86.961746,322.115356 84.808037,321.180481 84.976151,331.288910 
	C85.091896,338.248444 84.985664,345.211639 84.960205,352.637695 
z"/>
<path fill="#800000" opacity="1.000000" stroke="none" 
	d="
M501.494202,143.297607 
	C502.287903,146.645935 502.876099,149.853867 502.951447,153.073807 
	C503.106659,159.702789 502.894623,166.340012 503.023590,172.970139 
	C503.082306,175.989624 501.887512,177.047333 498.922607,177.023544 
	C486.940155,176.927383 489.208252,177.784607 489.023956,167.872482 
	C488.900696,161.242035 489.210022,154.598648 488.929840,147.977814 
	C488.759979,143.964050 490.295135,142.598389 494.101868,142.973587 
	C496.403931,143.200516 498.737213,143.110336 501.494202,143.297607 
z"/>
<path fill="#800000" opacity="1.000000" stroke="none" 
	d="
M756.044800,129.997360 
	C751.286194,130.639130 749.736633,128.942261 749.911133,124.494568 
	C750.235840,116.218140 750.115845,107.917946 749.956726,99.631958 
	C749.892334,96.280121 750.928955,94.635284 754.470825,94.984695 
	C756.113159,95.146721 757.973450,94.568535 759.387939,95.158287 
	C760.806274,95.749626 762.774780,97.347206 762.811890,98.555656 
	C763.096619,107.830528 762.948120,117.118111 762.978027,126.401596 
	C762.994751,131.587509 759.049438,129.500031 756.044800,129.997360 
z"/>
<path fill="#800000" opacity="1.000000" stroke="none" 
	d="
M528.999878,337.003601 
	C528.994507,342.310547 528.880249,347.122101 529.023987,351.925934 
	C529.112183,354.875031 528.072998,356.285767 525.017456,356.000854 
	C523.867310,355.893646 522.679077,355.858917 521.540710,356.020142 
	C517.186401,356.636780 515.740112,354.886475 515.911499,350.482300 
	C516.233582,342.204590 516.118469,333.903381 515.956116,325.616425 
	C515.890076,322.245483 516.959961,320.636719 520.486328,320.984650 
	C522.128906,321.146729 523.991516,320.567108 525.403564,321.159637 
	C526.819275,321.753693 528.657532,323.289154 528.807739,324.586060 
	C529.262695,328.513763 528.989441,332.525787 528.999878,337.003601 
z"/>
<path fill="#800000" opacity="1.000000" stroke="none" 
	d="
M702.304443,175.958771 
	C700.906738,174.705292 699.185059,173.493240 699.148682,172.232620 
	C698.905273,163.786255 699.072083,155.329025 698.989380,146.876450 
	C698.963074,144.189865 699.905334,142.838989 702.729309,143.003326 
	C704.546387,143.109055 706.379395,143.106567 708.196655,143.002045 
	C710.956726,142.843292 712.037170,144.055008 712.009216,146.804504 
	C711.923401,155.257004 711.924988,163.711456 712.009521,172.163986 
	C712.036804,174.885727 711.016113,176.158722 708.228516,175.997635 
	C706.411438,175.892609 704.583252,175.977768 702.304443,175.958771 
z"/>
<path fill="#800000" opacity="1.000000" stroke="none" 
	d="
M283.395142,142.109680 
	C295.901123,142.014862 293.738831,140.888428 293.997101,151.894470 
	C294.012695,152.557678 293.964630,153.223648 294.004517,153.884811 
	C294.418854,160.749847 294.419647,167.199829 287.863403,172.026917 
	C285.218475,173.974304 284.008575,177.870773 281.000763,180.708084 
	C281.000763,177.825775 281.000275,174.943466 281.000824,172.061157 
	C281.002411,163.766541 280.899109,155.469467 281.093964,147.179382 
	C281.133606,145.492859 282.296509,143.832748 283.395142,142.109680 
z"/>
<path fill="#800000" opacity="1.000000" stroke="none" 
	d="
M319.999329,167.977890 
	C319.999329,172.542633 319.999329,176.612549 319.999329,181.400314 
	C315.608215,175.863251 311.748077,171.265213 308.248383,166.407516 
	C307.283112,165.067673 307.127747,162.963745 307.060944,161.193039 
	C306.898010,156.873276 307.354431,152.507263 306.913025,148.226746 
	C306.371918,142.979843 308.496429,141.626724 313.403870,141.906647 
	C319.951782,142.280136 319.979248,141.994278 319.994873,148.515930 
	C320.010040,154.838272 319.998932,161.160675 319.999329,167.977890 
z"/>
<path fill="#000000" opacity="1.000000" stroke="none" 
	d="
M259.699524,408.290955 
	C265.218689,417.013153 260.483398,424.381561 251.501099,424.031403 
	C246.194778,423.824554 240.858429,424.190155 235.572678,423.798096 
	C234.315872,423.704926 232.339783,421.706116 232.193283,420.413910 
	C231.747269,416.479340 231.877701,412.451752 232.131989,408.482697 
	C232.205902,407.329102 233.537048,405.237671 234.143372,405.290161 
	C242.582367,406.021301 250.995499,407.050690 259.699524,408.290955 
z"/>
<path fill="#000000" opacity="1.000000" stroke="none" 
	d="
M577.671143,428.373352 
	C578.647827,431.529785 579.462341,434.329254 580.569580,438.134918 
	C574.331482,438.134918 568.912109,438.134918 562.128723,438.134918 
	C565.269104,429.311676 568.079529,421.415436 571.402283,412.079834 
	C573.797668,418.330902 575.653320,423.173615 577.671143,428.373352 
z"/>
<path fill="#000000" opacity="1.000000" stroke="none" 
	d="
M484.704895,415.957001 
	C483.258270,424.986237 476.609009,426.262909 469.584595,426.948944 
	C458.001953,428.080078 458.000122,428.062225 457.999908,416.475220 
	C457.999878,414.811127 457.994873,413.147003 458.002014,411.482941 
	C458.030273,404.896942 458.985504,404.108154 465.621613,405.118774 
	C467.739777,405.441315 469.861908,405.914764 471.990204,405.962494 
	C480.119019,406.144836 482.652069,407.998901 484.704895,415.957001 
z"/>
</svg>