<?xml version="1.0" encoding="UTF-8"?>
<svg xmlns="http://www.w3.org/2000/svg" xmlns:xlink="http://www.w3.org/1999/xlink" width="304pt" height="184pt" viewBox="0 0 304 184" version="1.1">
<g id="surface1">
<path style=" stroke:none;fill-rule:nonzero;fill:rgb(0%,0%,0%);fill-opacity:1;" d="M 90.359375 7.082031 C 90.058594 7.261719 89.824219 7.453125 89.824219 7.488281 C 89.835938 7.53125 90.863281 8.820312 92.125 10.367188 L 94.40625 13.167969 L 93.621094 13.199219 L 92.828125 13.234375 L 91.519531 12.027344 C 90.808594 11.363281 89.992188 10.613281 89.710938 10.355469 C 89.433594 10.097656 89.066406 9.769531 88.894531 9.640625 L 88.585938 9.378906 L 88.394531 9.648438 C 88.292969 9.78125 88.113281 10.042969 88.015625 10.195312 L 87.8125 10.5 L 89.800781 11.835938 L 91.777344 13.167969 L 86.058594 13.199219 L 80.328125 13.222656 L 80.328125 14.222656 L 81.3125 14.253906 L 82.28125 14.289062 L 82.339844 16.980469 C 82.394531 19.511719 82.40625 19.699219 82.660156 20.261719 C 82.820312 20.609375 83.144531 21.035156 83.433594 21.292969 C 83.890625 21.699219 84.179688 21.828125 85.445312 22.179688 C 85.667969 22.246094 85.410156 22.480469 83.46875 23.980469 L 81.234375 25.71875 L 81.722656 26.214844 C 82.183594 26.683594 82.226562 26.707031 82.417969 26.539062 C 82.53125 26.4375 83.945312 25.191406 85.578125 23.757812 L 88.539062 21.15625 L 88.574219 23.914062 L 88.597656 26.671875 L 89.9375 26.671875 L 89.9375 14.234375 L 91.980469 14.253906 L 94.015625 14.289062 L 94.046875 20.476562 L 94.070312 26.671875 L 95.410156 26.671875 L 95.410156 14.234375 L 104.570312 14.234375 L 104.570312 16.226562 L 102.539062 16.273438 C 100.605469 16.308594 100.472656 16.316406 100 16.585938 C 99.339844 16.957031 99.074219 17.347656 99.007812 18.03125 C 98.917969 19.007812 99.476562 20.015625 100.359375 20.464844 C 100.839844 20.710938 100.839844 20.699219 100.613281 20.945312 C 100.324219 21.273438 100.113281 21.953125 100.113281 22.582031 C 100.101562 23.636719 100.792969 24.652344 101.800781 25.113281 C 102.3125 25.351562 102.558594 25.382812 103.675781 25.375 C 104.808594 25.375 105.0625 25.328125 105.800781 25.058594 C 106.894531 24.640625 107.945312 24.09375 108.683594 23.535156 C 109.007812 23.289062 109.296875 23.085938 109.320312 23.085938 C 109.355469 23.085938 109.375 23.894531 109.375 24.878906 L 109.375 26.671875 L 110.714844 26.671875 L 110.714844 14.234375 L 114.847656 14.234375 L 114.847656 26.671875 L 116.1875 26.671875 L 116.1875 14.234375 L 118.289062 14.253906 L 120.382812 14.289062 L 120.414062 20.476562 L 120.4375 26.671875 L 121.777344 26.671875 L 121.777344 14.234375 L 127.808594 14.234375 L 127.808594 18.601562 L 126.824219 18.601562 C 125.808594 18.601562 125.574219 18.695312 125.574219 19.074219 C 125.574219 19.488281 126.054688 20.21875 126.835938 21 C 127.675781 21.839844 128.34375 22.246094 128.691406 22.132812 C 129.105469 22 129.148438 21.628906 129.148438 17.875 L 129.148438 14.234375 L 133.28125 14.234375 L 133.28125 26.671875 L 134.625 26.671875 L 134.648438 20.476562 L 134.679688 14.289062 L 139.515625 14.253906 L 144.34375 14.234375 L 144.34375 17.585938 C 144.34375 19.433594 144.296875 21.058594 144.242188 21.203125 C 143.964844 21.933594 142.777344 22.75 142 22.75 C 140.007812 22.75 138.992188 19.78125 140.5 18.355469 C 141.160156 17.738281 142.222656 17.527344 142.890625 17.875 L 143.226562 18.054688 L 143.226562 17.492188 C 143.226562 16.765625 143.023438 16.640625 141.886719 16.640625 C 140.8125 16.652344 139.996094 17.011719 139.273438 17.832031 C 138.667969 18.503906 138.421875 19.1875 138.421875 20.21875 C 138.421875 21.628906 139.226562 22.851562 140.546875 23.46875 C 141.683594 23.992188 143.339844 23.828125 144.097656 23.097656 L 144.34375 22.851562 L 144.34375 26.671875 L 145.675781 26.671875 L 145.707031 23.554688 L 145.742188 20.453125 L 146.039062 19.824219 C 146.835938 18.222656 148.3125 17.527344 149.480469 18.234375 C 150.152344 18.625 150.5 19.734375 150.265625 20.710938 C 150.097656 21.4375 149.316406 22.785156 148.601562 23.554688 L 148.054688 24.160156 L 148.609375 24.542969 L 149.183594 24.9375 L 149.671875 24.375 C 150.277344 23.703125 150.777344 22.953125 151.269531 21.964844 C 151.550781 21.402344 151.648438 21.046875 151.695312 20.441406 C 151.761719 19.308594 151.519531 18.613281 150.765625 17.863281 C 150.085938 17.179688 149.40625 16.921875 148.253906 16.921875 C 147.441406 16.921875 146.589844 17.257812 146.109375 17.773438 C 145.964844 17.917969 145.816406 18.042969 145.761719 18.042969 C 145.71875 18.042969 145.695312 17.203125 145.707031 16.160156 L 145.742188 14.289062 L 155.347656 14.289062 L 155.382812 20.476562 L 155.40625 26.671875 L 156.746094 26.671875 L 156.746094 14.234375 L 158.871094 14.234375 L 158.871094 13.234375 L 157.738281 13.199219 L 156.597656 13.167969 L 156.363281 12.441406 C 155.269531 9.203125 153.316406 7.488281 150.871094 7.644531 C 149.808594 7.710938 149.011719 8.148438 148.535156 8.90625 C 148.242188 9.367188 148.195312 9.558594 148.164062 10.46875 C 148.121094 11.519531 148.152344 11.65625 148.78125 13.078125 C 148.824219 13.191406 147.195312 13.222656 140.800781 13.222656 L 132.757812 13.222656 L 131.796875 12.113281 C 129.496094 9.449219 126.949219 7.722656 124.824219 7.394531 C 123.242188 7.148438 121.476562 7.710938 120.714844 8.707031 C 119.976562 9.671875 119.777344 11.21875 120.210938 12.496094 C 120.335938 12.855469 120.4375 13.167969 120.4375 13.191406 C 120.4375 13.199219 119.460938 13.222656 118.289062 13.210938 L 116.132812 13.210938 L 113.519531 9.972656 L 110.917969 6.722656 L 110.617188 6.949219 C 110.460938 7.070312 110.203125 7.261719 110.046875 7.382812 L 109.765625 7.609375 L 110.269531 8.136719 C 110.546875 8.417969 111.152344 9.042969 111.609375 9.515625 C 112.078125 9.984375 113.085938 11.003906 113.84375 11.789062 L 115.21875 13.222656 L 95.242188 13.222656 L 93.199219 9.972656 C 92.070312 8.179688 91.085938 6.722656 91.019531 6.734375 C 90.941406 6.734375 90.648438 6.890625 90.359375 7.082031 Z M 124.8125 8.527344 C 125.664062 8.707031 126.871094 9.3125 127.910156 10.085938 C 128.792969 10.746094 130.402344 12.292969 130.835938 12.910156 L 131.058594 13.222656 L 121.6875 13.222656 L 121.5625 12.910156 C 120.792969 10.960938 121.464844 9.191406 123.21875 8.5625 C 123.71875 8.382812 124.066406 8.371094 124.8125 8.527344 Z M 152.410156 8.898438 C 153.5625 9.457031 154.800781 11.171875 155.304688 12.910156 L 155.394531 13.222656 L 150.152344 13.222656 L 149.894531 12.6875 C 149.515625 11.933594 149.339844 11.058594 149.40625 10.34375 C 149.527344 9.144531 150.164062 8.585938 151.328125 8.652344 C 151.695312 8.671875 152.1875 8.785156 152.410156 8.898438 Z M 88.574219 16.988281 L 88.597656 19.6875 L 88.101562 20.148438 C 87.835938 20.398438 87.34375 20.742188 87.019531 20.902344 C 86.25 21.292969 85.164062 21.273438 84.539062 20.847656 C 83.757812 20.304688 83.734375 20.21875 83.703125 17.054688 L 83.667969 14.234375 L 86.101562 14.253906 L 88.539062 14.289062 Z M 109.375 17.917969 L 109.375 21.605469 L 108.695312 22.167969 C 107.441406 23.1875 105.644531 24.09375 104.394531 24.332031 C 103.363281 24.519531 102.390625 24.25 101.789062 23.601562 C 101.375 23.164062 101.332031 22.167969 101.6875 21.628906 C 102.167969 20.921875 102.660156 20.730469 104.046875 20.730469 L 105.242188 20.730469 L 105.074219 20.304688 C 104.972656 20.082031 104.839844 19.835938 104.785156 19.78125 C 104.582031 19.578125 102.671875 19.644531 102.089844 19.867188 C 101.476562 20.105469 101.332031 20.058594 100.738281 19.398438 C 100.226562 18.824219 100.101562 18.246094 100.402344 17.84375 C 100.527344 17.671875 100.75 17.503906 100.894531 17.472656 C 101.039062 17.425781 102.203125 17.394531 103.488281 17.382812 L 105.800781 17.371094 L 105.800781 14.234375 L 109.375 14.234375 Z M 109.375 17.917969 "/>
<path style=" stroke:none;fill-rule:nonzero;fill:rgb(0%,0%,0%);fill-opacity:1;" d="M 234.785156 7.40625 C 233.394531 7.621094 232.3125 8.449219 231.875 9.648438 C 231.585938 10.46875 231.597656 11.722656 231.910156 12.574219 L 232.132812 13.222656 L 229.8125 13.222656 L 229.8125 14.234375 L 232.046875 14.234375 L 232.046875 26.671875 L 233.386719 26.671875 L 233.40625 20.476562 L 233.441406 14.289062 L 244.726562 14.289062 L 244.761719 15.765625 L 244.792969 17.257812 L 241.851562 17.257812 C 238.738281 17.257812 238.269531 17.3125 237.652344 17.785156 C 237.027344 18.257812 236.792969 18.847656 236.804688 19.949219 C 236.816406 20.964844 236.960938 21.527344 237.554688 22.714844 C 237.964844 23.566406 239.128906 25.035156 240.089844 25.921875 L 240.792969 26.582031 L 241.203125 26.132812 L 241.609375 25.675781 L 240.714844 24.746094 C 239.085938 23.050781 238.089844 21.191406 238.078125 19.824219 C 238.078125 19.34375 238.132812 19.121094 238.324219 18.886719 C 238.769531 18.3125 239.0625 18.269531 242.042969 18.269531 L 244.78125 18.269531 L 244.78125 26.671875 L 246.121094 26.671875 L 246.121094 14.234375 L 254.054688 14.234375 L 254.054688 16.25 C 254.054688 18.515625 253.953125 18.984375 253.441406 19.121094 C 253.003906 19.230469 252.265625 19.097656 251.941406 18.847656 C 251.707031 18.683594 250.804688 17.359375 250.667969 16.988281 C 250.636719 16.875 249.753906 17.300781 249.640625 17.480469 C 249.382812 17.898438 253.449219 24.015625 255.375 26.101562 L 256.03125 26.816406 L 256.542969 26.449219 C 256.835938 26.246094 257.070312 26.035156 257.070312 25.988281 C 257.070312 25.929688 256.804688 25.609375 256.46875 25.25 C 255.339844 24.039062 254.3125 22.75 253.507812 21.5625 C 253.070312 20.910156 252.714844 20.339844 252.714844 20.292969 C 252.714844 20.238281 253.015625 20.171875 253.386719 20.148438 C 254.199219 20.09375 254.882812 19.65625 255.238281 18.996094 C 255.417969 18.636719 255.628906 18.460938 256.300781 18.121094 C 257.015625 17.738281 257.203125 17.695312 257.707031 17.726562 C 258.804688 17.820312 259.472656 18.601562 259.453125 19.804688 C 259.441406 20.632812 258.902344 21.851562 258.1875 22.660156 L 257.730469 23.1875 L 258.15625 23.578125 C 258.390625 23.800781 258.613281 23.980469 258.65625 23.980469 C 258.804688 23.980469 259.675781 22.894531 260.042969 22.246094 C 260.589844 21.261719 260.769531 20.664062 260.769531 19.8125 C 260.78125 18.578125 260.1875 17.5625 259.136719 17 C 258.792969 16.808594 258.488281 16.753906 257.796875 16.753906 C 257.027344 16.753906 256.804688 16.800781 256.15625 17.113281 L 255.394531 17.472656 L 255.394531 14.234375 L 259.394531 14.253906 L 263.382812 14.289062 L 263.4375 17.148438 C 263.507812 20.429688 263.5625 20.65625 264.554688 21.550781 C 265.761719 22.636719 267.773438 22.714844 269.226562 21.71875 L 269.695312 21.394531 L 269.695312 19.558594 L 269.425781 19.960938 C 269.113281 20.417969 268.609375 20.824219 267.917969 21.179688 C 266.867188 21.707031 265.507812 21.28125 265.015625 20.261719 C 264.789062 19.792969 264.777344 19.589844 264.777344 17 L 264.777344 14.234375 L 267.570312 14.234375 L 267.570312 13.222656 L 255.953125 13.222656 C 248.914062 13.222656 244.335938 13.179688 244.335938 13.125 C 244.335938 12.921875 241.429688 9.996094 240.617188 9.367188 C 238.546875 7.789062 236.601562 7.128906 234.785156 7.40625 Z M 236.65625 8.574219 C 238.175781 8.964844 239.957031 10.164062 241.628906 11.933594 C 242.199219 12.527344 242.660156 13.058594 242.660156 13.113281 C 242.660156 13.179688 240.914062 13.222656 238.011719 13.222656 L 233.375 13.222656 L 233.183594 12.796875 C 233.0625 12.519531 232.992188 12.070312 232.992188 11.375 C 232.992188 10.46875 233.027344 10.3125 233.308594 9.839844 C 233.808594 8.976562 234.714844 8.417969 235.621094 8.40625 C 235.84375 8.40625 236.304688 8.480469 236.65625 8.574219 Z M 236.65625 8.574219 "/>
<path style=" stroke:none;fill-rule:nonzero;fill:rgb(0%,0%,0%);fill-opacity:1;" d="M 278.164062 7.394531 C 277.492188 7.519531 276.566406 7.945312 276.085938 8.351562 C 275.070312 9.214844 274.710938 11.238281 275.324219 12.71875 C 275.429688 12.945312 275.503906 13.15625 275.503906 13.179688 C 275.503906 13.199219 273.75 13.222656 271.59375 13.222656 L 267.683594 13.222656 L 267.683594 14.234375 L 269.917969 14.234375 L 269.917969 26.671875 L 271.257812 26.671875 L 271.28125 20.476562 L 271.316406 14.289062 L 273.359375 14.253906 L 275.394531 14.234375 L 275.394531 26.671875 L 276.734375 26.671875 L 276.757812 20.476562 L 276.789062 14.289062 L 288.074219 14.289062 L 288.105469 15.765625 L 288.140625 17.257812 L 285.203125 17.257812 C 283.582031 17.257812 282.085938 17.3125 281.859375 17.371094 C 280.476562 17.761719 279.871094 19.039062 280.242188 20.800781 C 280.578125 22.4375 281.425781 23.859375 283.125 25.585938 L 284.109375 26.605469 L 284.578125 26.144531 L 285.035156 25.675781 L 284.386719 25.078125 C 283.515625 24.285156 282.496094 22.90625 281.941406 21.753906 C 281.539062 20.902344 281.496094 20.722656 281.484375 19.9375 C 281.484375 19.230469 281.527344 19.027344 281.707031 18.824219 C 282.152344 18.3125 282.476562 18.269531 285.394531 18.269531 L 288.128906 18.269531 L 288.128906 26.671875 L 289.472656 26.671875 L 289.472656 14.234375 L 291.589844 14.234375 L 291.589844 13.222656 L 287.816406 13.222656 L 286.832031 12.089844 C 283.804688 8.628906 280.6875 6.9375 278.164062 7.394531 Z M 280.03125 8.574219 C 281.527344 8.953125 283.257812 10.132812 284.980469 11.933594 L 286.152344 13.167969 L 281.484375 13.199219 C 278.914062 13.210938 276.769531 13.191406 276.722656 13.144531 C 276.578125 13 276.289062 11.757812 276.289062 11.320312 C 276.289062 9.769531 277.503906 8.449219 278.96875 8.417969 C 279.191406 8.40625 279.671875 8.480469 280.03125 8.574219 Z M 280.03125 8.574219 "/>
<path style=" stroke:none;fill-rule:nonzero;fill:rgb(0%,0%,0%);fill-opacity:1;" d="M 49.671875 7.832031 C 49.023438 8.105469 48.554688 8.515625 48.230469 9.132812 C 48.027344 9.503906 47.984375 9.769531 47.984375 10.644531 C 47.984375 11.609375 48.019531 11.78125 48.34375 12.460938 L 48.699219 13.222656 L 18.65625 13.222656 L 18.65625 14.222656 L 20.199219 14.253906 L 21.730469 14.289062 L 21.765625 16.832031 L 21.785156 19.386719 L 17.539062 19.386719 L 17.539062 17.160156 C 17.539062 15.9375 17.507812 14.769531 17.472656 14.582031 C 17.359375 14.042969 16.625 13.28125 16.007812 13.070312 C 14.578125 12.574219 13.027344 13.15625 12.636719 14.332031 C 12.457031 14.871094 12.480469 15.609375 12.691406 16.136719 C 12.871094 16.585938 12.882812 16.585938 13.472656 16.585938 L 14.066406 16.585938 L 13.898438 16.191406 C 13.542969 15.320312 13.796875 14.265625 14.433594 13.996094 C 14.914062 13.796875 15.652344 13.941406 15.945312 14.289062 C 16.1875 14.570312 16.199219 14.660156 16.199219 16.988281 L 16.199219 19.386719 L 15.308594 19.386719 C 14.554688 19.386719 14.378906 19.421875 14.191406 19.613281 C 13.875 19.925781 13.90625 20.171875 14.320312 20.742188 C 14.871094 21.507812 16.5 23.074219 16.824219 23.152344 C 17.394531 23.296875 17.484375 23.128906 17.519531 21.753906 L 17.550781 20.507812 L 19.640625 20.53125 L 21.730469 20.5625 L 21.765625 23.613281 L 21.785156 26.671875 L 23.125 26.671875 L 23.125 14.234375 L 25.167969 14.253906 L 27.203125 14.289062 L 27.238281 20.476562 L 27.261719 26.671875 L 28.601562 26.671875 L 28.601562 14.234375 L 36.980469 14.234375 L 36.980469 16.203125 C 36.980469 18 36.957031 18.222656 36.757812 18.558594 C 36.320312 19.261719 35.023438 19.476562 34.1875 18.984375 C 34.007812 18.875 33.628906 18.367188 33.304688 17.796875 L 32.722656 16.808594 L 32.21875 17.148438 C 31.953125 17.335938 31.730469 17.5625 31.730469 17.640625 C 31.730469 17.832031 33.113281 20.136719 34.085938 21.574219 C 34.84375 22.691406 36.746094 25.113281 37.683594 26.167969 L 38.1875 26.726562 L 38.644531 26.28125 C 38.902344 26.046875 39.101562 25.808594 39.101562 25.777344 C 39.101562 25.742188 38.96875 25.5625 38.789062 25.382812 C 37.171875 23.589844 36.632812 22.929688 35.492188 21.28125 L 34.757812 20.207031 L 35.503906 20.207031 C 36.667969 20.21875 37.703125 19.65625 38.1875 18.769531 C 38.332031 18.503906 38.375 18.023438 38.410156 16.328125 L 38.457031 14.234375 L 44.054688 14.253906 L 49.660156 14.289062 L 49.695312 15.765625 L 49.726562 17.246094 L 46.554688 17.28125 L 43.382812 17.3125 L 42.84375 17.652344 C 42.074219 18.132812 41.78125 18.726562 41.78125 19.835938 C 41.78125 21.765625 42.734375 23.578125 44.820312 25.664062 L 45.738281 26.570312 L 46.164062 26.132812 L 46.597656 25.695312 L 45.773438 24.867188 C 44.832031 23.925781 43.703125 22.277344 43.347656 21.328125 C 43.214844 20.976562 43.078125 20.386719 43.046875 20.015625 C 43.003906 19.421875 43.023438 19.273438 43.257812 18.941406 C 43.671875 18.335938 43.972656 18.277344 47.011719 18.277344 L 49.714844 18.269531 L 49.714844 26.671875 L 51.054688 26.671875 L 51.054688 14.234375 L 55.191406 14.234375 L 55.191406 26.671875 L 56.53125 26.671875 L 56.53125 14.234375 L 61.996094 14.234375 L 62.386719 14.714844 C 64.183594 16.910156 63.347656 19.355469 60.867188 19.132812 L 60.195312 19.074219 L 60.273438 19.589844 C 60.320312 19.878906 60.5 20.507812 60.675781 20.976562 C 61.535156 23.222656 63.65625 24.285156 66.117188 23.703125 C 66.820312 23.535156 67.847656 23.074219 67.980469 22.863281 C 68.195312 22.503906 68.261719 22.917969 68.261719 24.710938 L 68.261719 26.671875 L 69.601562 26.671875 L 69.601562 14.234375 L 71.726562 14.234375 L 71.726562 13.222656 L 56.429688 13.222656 L 56.25 12.609375 C 55.929688 11.476562 54.964844 9.75 54.285156 9.066406 C 53.359375 8.136719 52.441406 7.722656 51.203125 7.667969 C 50.410156 7.621094 50.121094 7.65625 49.671875 7.832031 Z M 51.839844 8.742188 C 52.554688 8.941406 53.382812 9.628906 53.949219 10.480469 C 54.433594 11.207031 55.191406 12.808594 55.191406 13.101562 C 55.191406 13.191406 54.363281 13.222656 52.585938 13.222656 L 49.984375 13.222656 L 49.671875 12.574219 C 49.132812 11.441406 49.089844 10.042969 49.558594 9.335938 C 49.960938 8.707031 50.886719 8.472656 51.839844 8.742188 Z M 68.238281 17.628906 L 68.261719 20.976562 L 67.570312 21.675781 C 66.238281 23.007812 64.550781 23.253906 63.101562 22.335938 C 62.621094 22.03125 61.9375 21.070312 61.828125 20.550781 C 61.761719 20.21875 61.78125 20.195312 62.128906 20.113281 C 63.15625 19.878906 64.003906 19.261719 64.417969 18.4375 C 64.675781 17.898438 64.707031 17.71875 64.664062 16.957031 C 64.632812 16.226562 64.5625 15.9375 64.207031 15.195312 C 63.984375 14.714844 63.792969 14.296875 63.792969 14.277344 C 63.792969 14.242188 64.789062 14.242188 66.003906 14.253906 L 68.203125 14.289062 Z M 68.238281 17.628906 "/>
<path style=" stroke:none;fill-rule:nonzero;fill:rgb(0%,0%,0%);fill-opacity:1;" d="M 175.738281 9.804688 L 175.738281 10.757812 L 177.636719 10.757812 L 177.636719 8.851562 L 175.738281 8.851562 Z M 175.738281 9.804688 "/>
<path style=" stroke:none;fill-rule:nonzero;fill:rgb(0%,0%,0%);fill-opacity:1;" d="M 191.902344 13.113281 C 191.335938 13.257812 190.699219 13.59375 190.40625 13.917969 C 189.570312 14.816406 189.65625 16.585938 190.574219 17.234375 C 190.933594 17.492188 192.015625 17.820312 192.515625 17.820312 C 192.808594 17.820312 192.832031 17.785156 192.832031 17.382812 C 192.832031 16.96875 192.820312 16.945312 192.398438 16.875 C 192.113281 16.832031 191.804688 16.675781 191.558594 16.429688 C 191.210938 16.105469 191.15625 15.980469 191.15625 15.53125 C 191.15625 15.09375 191.222656 14.949219 191.535156 14.59375 C 191.914062 14.1875 191.9375 14.175781 192.742188 14.175781 C 193.445312 14.175781 193.632812 14.222656 193.992188 14.457031 C 195.1875 15.265625 195.523438 16.945312 194.730469 18.1875 C 194.148438 19.109375 192.875 19.835938 191.859375 19.835938 C 191.503906 19.835938 191.492188 19.824219 191.492188 19.332031 L 191.492188 18.824219 L 186.789062 18.824219 L 187.210938 19.386719 L 187.636719 19.9375 L 188.664062 19.949219 C 189.582031 19.949219 189.691406 19.972656 189.757812 20.171875 C 189.902344 20.621094 190.921875 22.042969 191.457031 22.550781 C 193.558594 24.5 196.964844 24.464844 199.175781 22.46875 L 199.757812 21.945312 L 199.757812 26.671875 L 201.097656 26.671875 L 201.121094 20.476562 L 201.152344 14.289062 L 203.199219 14.253906 L 205.230469 14.234375 L 205.230469 26.671875 L 206.683594 26.671875 L 206.683594 14.234375 L 212.191406 14.253906 L 217.691406 14.289062 L 217.691406 17.761719 L 214.027344 17.820312 C 210.550781 17.875 210.351562 17.886719 210.191406 18.089844 C 210.105469 18.210938 210.035156 18.410156 210.035156 18.546875 C 210.035156 19.175781 212.179688 21.628906 212.730469 21.628906 C 213.210938 21.628906 213.273438 21.449219 213.273438 20.09375 L 213.273438 18.824219 L 217.746094 18.824219 L 217.746094 26.671875 L 219.085938 26.671875 L 219.085938 14.234375 L 221.207031 14.234375 L 221.207031 13.222656 L 197.523438 13.222656 L 197.523438 14.234375 L 199.757812 14.234375 L 199.757812 20.136719 L 199.230469 20.742188 C 198.113281 22.03125 197.109375 22.648438 195.769531 22.871094 C 194.429688 23.097656 193.089844 22.605469 192.171875 21.5625 C 191.914062 21.273438 191.714844 20.988281 191.714844 20.945312 C 191.714844 20.890625 191.878906 20.847656 192.082031 20.847656 C 192.609375 20.847656 194.027344 20.429688 194.652344 20.082031 C 197.253906 18.660156 197.0625 14.421875 194.339844 13.28125 C 193.800781 13.058594 192.496094 12.964844 191.902344 13.113281 Z M 191.902344 13.113281 "/>
<path style=" stroke:none;fill-rule:nonzero;fill:rgb(0%,0%,0%);fill-opacity:1;" d="M 164.117188 13.730469 L 164.117188 14.234375 L 167 14.253906 L 169.871094 14.289062 L 169.871094 16.609375 C 169.871094 18.886719 169.859375 18.941406 169.613281 19.1875 C 169.414062 19.386719 169.238281 19.441406 168.753906 19.441406 C 167.964844 19.441406 167.671875 19.207031 167.058594 18.078125 L 166.566406 17.160156 L 166.019531 17.492188 L 165.46875 17.832031 L 165.816406 18.46875 C 166.722656 20.125 167.222656 20.976562 167.839844 21.910156 C 168.632812 23.085938 171.066406 26.347656 171.324219 26.558594 C 171.480469 26.683594 171.570312 26.640625 171.992188 26.226562 L 172.488281 25.742188 L 171.59375 24.734375 C 170.566406 23.554688 169.714844 22.457031 168.988281 21.316406 L 168.476562 20.507812 L 169.089844 20.507812 C 169.828125 20.507812 170.332031 20.316406 170.722656 19.878906 C 171.203125 19.34375 171.269531 18.960938 171.269531 16.519531 L 171.269531 14.234375 L 176.070312 14.234375 L 176.070312 18.824219 L 173.828125 18.847656 L 171.582031 18.886719 L 172.015625 19.410156 L 172.441406 19.949219 L 176.070312 19.949219 L 176.070312 26.671875 L 177.414062 26.671875 L 177.414062 14.234375 L 181.246094 14.253906 L 185.066406 14.289062 L 185.101562 16.5625 L 185.121094 18.835938 L 184.785156 19.1875 C 184.472656 19.5 184.386719 19.523438 183.890625 19.476562 C 183.125 19.398438 182.878906 19.1875 182.339844 18.164062 C 182.082031 17.664062 181.816406 17.257812 181.734375 17.257812 C 181.570312 17.257812 180.765625 17.796875 180.765625 17.90625 C 180.765625 18.109375 182.230469 20.609375 183.167969 22.019531 C 184.386719 23.839844 186.472656 26.617188 186.640625 26.617188 C 186.695312 26.617188 186.976562 26.425781 187.234375 26.203125 L 187.726562 25.789062 L 187.34375 25.339844 C 185.824219 23.578125 185.164062 22.75 184.519531 21.773438 C 184.117188 21.15625 183.78125 20.621094 183.78125 20.585938 C 183.78125 20.539062 184.050781 20.507812 184.375 20.507812 C 185.222656 20.507812 185.894531 20.148438 186.214844 19.5 C 186.449219 19.027344 186.460938 18.875 186.460938 16.621094 L 186.460938 14.234375 L 189.367188 14.234375 L 189.367188 13.222656 L 164.117188 13.222656 Z M 164.117188 13.730469 "/>
<path style=" stroke:none;fill-rule:nonzero;fill:rgb(50.196078%,0%,0%);fill-opacity:1;" d="M 275.28125 42.363281 L 275.28125 48.75 L 280.085938 48.75 L 280.085938 35.972656 L 275.28125 35.972656 Z M 275.28125 42.363281 "/>
<path style=" stroke:none;fill-rule:nonzero;fill:rgb(50.196078%,0%,0%);fill-opacity:1;" d="M 284.777344 42.363281 L 284.777344 48.75 L 289.472656 48.75 L 289.472656 35.972656 L 284.777344 35.972656 Z M 284.777344 42.363281 "/>
<path style=" stroke:none;fill-rule:nonzero;fill:rgb(50.196078%,0%,0%);fill-opacity:1;" d="M 17.429688 42.472656 L 17.429688 48.863281 L 22.121094 48.863281 L 22.121094 36.085938 L 17.429688 36.085938 Z M 17.429688 42.472656 "/>
<path style=" stroke:none;fill-rule:nonzero;fill:rgb(50.196078%,0%,0%);fill-opacity:1;" d="M 26.8125 42.472656 L 26.8125 48.863281 L 31.617188 48.863281 L 31.617188 36.085938 L 26.8125 36.085938 Z M 26.8125 42.472656 "/>
<path style=" stroke:none;fill-rule:nonzero;fill:rgb(0%,0%,0%);fill-opacity:1;" d="M 36.476562 36.21875 C 36.445312 36.296875 36.433594 39.167969 36.445312 42.585938 L 36.476562 48.792969 L 46.398438 48.761719 L 56.304688 48.726562 L 56.304688 122.042969 L 36.421875 122.042969 L 36.421875 134.707031 L 73.714844 134.683594 L 110.992188 134.652344 L 111.027344 130.613281 C 111.050781 128.398438 111.027344 125.460938 110.992188 124.082031 L 110.917969 121.59375 L 91.390625 121.59375 L 91.367188 89.878906 C 91.34375 72.429688 91.332031 55.980469 91.332031 53.308594 L 91.332031 48.46875 L 101.199219 48.4375 L 111.050781 48.414062 L 111.050781 46.640625 C 111.050781 45.667969 111.015625 42.886719 110.972656 40.480469 L 110.90625 36.085938 L 73.714844 36.085938 C 44.0625 36.085938 36.511719 36.121094 36.476562 36.21875 Z M 36.476562 36.21875 "/>
<path style=" stroke:none;fill-rule:nonzero;fill:rgb(0%,0%,0%);fill-opacity:1;" d="M 115.964844 42.25 L 115.964844 48.414062 L 135.742188 48.414062 L 135.742188 121.59375 L 115.964844 121.59375 L 115.988281 128.117188 L 116.023438 134.652344 L 190.765625 134.652344 L 190.796875 128.304688 L 190.820312 121.964844 L 183.761719 121.898438 C 179.882812 121.851562 175.378906 121.816406 173.761719 121.816406 L 170.824219 121.816406 L 170.824219 48.75 L 190.707031 48.75 L 190.707031 36.085938 L 115.964844 36.085938 Z M 115.964844 42.25 "/>
<path style=" stroke:none;fill-rule:nonzero;fill:rgb(0%,0%,0%);fill-opacity:1;" d="M 195.980469 42.386719 L 196.015625 48.695312 L 205.644531 48.726562 L 215.289062 48.75 L 215.3125 91.707031 L 215.34375 134.652344 L 232.839844 134.683594 L 250.347656 134.707031 L 250.421875 128.128906 C 250.46875 124.496094 250.476562 105.164062 250.445312 85.148438 L 250.378906 48.75 L 260.511719 48.726562 L 270.644531 48.695312 L 270.679688 42.386719 L 270.703125 36.085938 L 195.957031 36.085938 Z M 195.980469 42.386719 "/>
<path style=" stroke:none;fill-rule:nonzero;fill:rgb(50.196078%,0%,0%);fill-opacity:1;" d="M 96.972656 85.0625 L 96.972656 116.214844 L 101.78125 116.214844 L 101.78125 53.902344 L 96.972656 53.902344 Z M 96.972656 85.0625 "/>
<path style=" stroke:none;fill-rule:nonzero;fill:rgb(50.196078%,0%,0%);fill-opacity:1;" d="M 106.46875 61.359375 L 106.46875 68.820312 L 107.140625 67.496094 C 107.890625 66.007812 109.1875 64.226562 110.367188 63.015625 L 111.164062 62.210938 L 111.164062 53.902344 L 106.46875 53.902344 Z M 106.46875 61.359375 "/>
<path style=" stroke:none;fill-rule:nonzero;fill:rgb(50.196078%,0%,0%);fill-opacity:1;" d="M 116.414062 58.003906 L 116.414062 62.105469 L 117.070312 62.824219 C 118.714844 64.585938 119.519531 65.707031 120.457031 67.566406 L 121.105469 68.832031 L 121.105469 53.902344 L 116.414062 53.902344 Z M 116.414062 58.003906 "/>
<path style=" stroke:none;fill-rule:nonzero;fill:rgb(50.196078%,0%,0%);fill-opacity:1;" d="M 125.800781 85.0625 L 125.800781 116.214844 L 130.601562 116.214844 L 130.601562 53.902344 L 125.800781 53.902344 Z M 125.800781 85.0625 "/>
<path style=" stroke:none;fill-rule:nonzero;fill:rgb(50.196078%,0%,0%);fill-opacity:1;" d="M 176.410156 62.769531 L 176.410156 71.410156 L 176.855469 71.007812 C 177.613281 70.320312 179.023438 69.316406 180.09375 68.699219 L 181.101562 68.113281 L 181.101562 54.128906 L 176.410156 54.128906 Z M 176.410156 62.769531 "/>
<path style=" stroke:none;fill-rule:nonzero;fill:rgb(50.196078%,0%,0%);fill-opacity:1;" d="M 185.792969 60.371094 L 185.792969 66.625 L 190.59375 66.625 L 190.59375 54.128906 L 185.792969 54.128906 Z M 185.792969 60.371094 "/>
<path style=" stroke:none;fill-rule:nonzero;fill:rgb(50.196078%,0%,0%);fill-opacity:1;" d="M 195.734375 61.234375 L 195.734375 68.339844 L 196.550781 68.820312 C 197.636719 69.457031 198.796875 70.320312 199.667969 71.152344 C 200.070312 71.535156 200.429688 71.835938 200.472656 71.835938 C 200.503906 71.835938 200.539062 67.847656 200.539062 62.980469 L 200.539062 54.128906 L 195.734375 54.128906 Z M 195.734375 61.234375 "/>
<path style=" stroke:none;fill-rule:nonzero;fill:rgb(50.196078%,0%,0%);fill-opacity:1;" d="M 205.230469 94.363281 L 205.230469 134.59375 L 209.925781 134.59375 L 209.925781 54.128906 L 205.230469 54.128906 Z M 205.230469 94.363281 "/>
<path style=" stroke:none;fill-rule:nonzero;fill:rgb(50.196078%,0%,0%);fill-opacity:1;" d="M 255.953125 62.714844 L 255.953125 71.296875 L 256.523438 70.804688 C 257.585938 69.894531 258.804688 69.042969 259.71875 68.5625 L 260.644531 68.082031 L 260.644531 54.128906 L 255.953125 54.128906 Z M 255.953125 62.714844 "/>
<path style=" stroke:none;fill-rule:nonzero;fill:rgb(50.196078%,0%,0%);fill-opacity:1;" d="M 265.449219 60.316406 L 265.449219 66.515625 L 270.140625 66.515625 L 270.140625 54.128906 L 265.449219 54.128906 Z M 265.449219 60.316406 "/>
<path style=" stroke:none;fill-rule:nonzero;fill:rgb(50.196078%,0%,0%);fill-opacity:1;" d="M 275.28125 61.179688 L 275.28125 68.226562 L 276.355469 68.867188 C 277.269531 69.414062 278.980469 70.679688 279.359375 71.097656 C 279.425781 71.164062 279.605469 71.34375 279.785156 71.488281 L 280.085938 71.757812 L 280.085938 54.128906 L 275.28125 54.128906 Z M 275.28125 61.179688 "/>
<path style=" stroke:none;fill-rule:nonzero;fill:rgb(50.196078%,0%,0%);fill-opacity:1;" d="M 284.777344 94.417969 L 284.777344 134.707031 L 289.472656 134.707031 L 289.472656 54.128906 L 284.777344 54.128906 Z M 284.777344 94.417969 "/>
<path style=" stroke:none;fill-rule:nonzero;fill:rgb(50.196078%,0%,0%);fill-opacity:1;" d="M 17.429688 94.472656 L 17.429688 134.707031 L 22.121094 134.707031 L 22.121094 54.242188 L 17.429688 54.242188 Z M 17.429688 94.472656 "/>
<path style=" stroke:none;fill-rule:nonzero;fill:rgb(50.196078%,0%,0%);fill-opacity:1;" d="M 26.8125 63.207031 C 26.8125 68.136719 26.847656 72.171875 26.878906 72.171875 C 26.925781 72.171875 27.261719 71.882812 27.640625 71.535156 C 28.554688 70.671875 29.941406 69.660156 30.859375 69.15625 L 31.617188 68.753906 L 31.617188 54.242188 L 26.8125 54.242188 Z M 26.8125 63.207031 "/>
<path style=" stroke:none;fill-rule:nonzero;fill:rgb(50.196078%,0%,0%);fill-opacity:1;" d="M 36.757812 60.59375 L 36.757812 66.960938 L 41.558594 66.960938 L 41.558594 54.242188 L 36.757812 54.242188 Z M 36.757812 60.59375 "/>
<path style=" stroke:none;fill-rule:nonzero;fill:rgb(50.196078%,0%,0%);fill-opacity:1;" d="M 46.253906 61.390625 L 46.253906 68.539062 L 46.789062 68.796875 C 47.492188 69.148438 49.300781 70.355469 49.996094 70.949219 C 50.308594 71.207031 50.640625 71.5 50.757812 71.589844 C 50.933594 71.746094 50.945312 71.332031 50.945312 63.003906 L 50.945312 54.242188 L 46.253906 54.242188 Z M 46.253906 61.390625 "/>
<path style=" stroke:none;fill-rule:nonzero;fill:rgb(50.196078%,0%,0%);fill-opacity:1;" d="M 111.933594 68.519531 C 109.898438 69.089844 108.191406 70.59375 107.375 72.566406 C 105.945312 75.972656 107.441406 79.925781 110.738281 81.472656 C 113.328125 82.695312 116.378906 82.144531 118.402344 80.117188 C 119.640625 78.863281 120.300781 77.371094 120.402344 75.578125 C 120.59375 72.269531 118.523438 69.359375 115.375 68.519531 C 114.660156 68.328125 112.628906 68.328125 111.933594 68.519531 Z M 111.933594 68.519531 "/>
<path style=" stroke:none;fill-rule:nonzero;fill:rgb(50.196078%,0%,0%);fill-opacity:1;" d="M 266.019531 68.539062 C 264.054688 69.066406 262.410156 70.433594 261.597656 72.226562 C 261.101562 73.304688 260.9375 74.066406 260.949219 75.253906 C 260.960938 77.203125 261.609375 78.75 262.980469 80.128906 C 263.851562 80.992188 264.65625 81.496094 265.785156 81.878906 C 266.265625 82.046875 266.710938 82.089844 267.792969 82.078125 C 269.015625 82.078125 269.292969 82.035156 269.941406 81.789062 C 272.199219 80.9375 273.773438 79.175781 274.34375 76.878906 C 274.613281 75.816406 274.507812 74.066406 274.132812 72.980469 C 273.359375 70.78125 271.539062 69.101562 269.304688 68.53125 C 268.476562 68.316406 266.824219 68.328125 266.019531 68.539062 Z M 266.019531 68.539062 "/>
<path style=" stroke:none;fill-rule:nonzero;fill:rgb(50.196078%,0%,0%);fill-opacity:1;" d="M 186.484375 68.628906 C 184.195312 69.210938 182.296875 71.085938 181.59375 73.460938 C 181.289062 74.46875 181.3125 76.25 181.636719 77.304688 C 182.394531 79.738281 184.230469 81.484375 186.683594 82.101562 C 187.714844 82.359375 189.378906 82.269531 190.394531 81.886719 C 193.1875 80.867188 194.941406 78.335938 194.953125 75.355469 C 194.953125 73.785156 194.261719 71.949219 193.222656 70.746094 C 192.585938 70.019531 191.289062 69.136719 190.359375 68.808594 C 189.46875 68.496094 187.402344 68.394531 186.484375 68.628906 Z M 186.484375 68.628906 "/>
<path style=" stroke:none;fill-rule:nonzero;fill:rgb(50.196078%,0%,0%);fill-opacity:1;" d="M 37.539062 68.976562 C 34.644531 69.628906 32.5 72.238281 32.308594 75.320312 C 32.121094 78.617188 34.3125 81.621094 37.480469 82.425781 C 38.339844 82.636719 39.953125 82.636719 40.8125 82.414062 C 44.621094 81.429688 46.8125 77.304688 45.539062 73.515625 C 44.832031 71.457031 43.148438 69.785156 41.113281 69.136719 C 40.164062 68.832031 38.519531 68.753906 37.539062 68.976562 Z M 37.539062 68.976562 "/>
<path style=" stroke:none;fill-rule:nonzero;fill:rgb(50.196078%,0%,0%);fill-opacity:1;" d="M 279.191406 79.246094 C 278.410156 79.992188 276.277344 81.507812 275.59375 81.820312 L 275.28125 81.953125 L 275.28125 134.707031 L 280.085938 134.707031 L 280.085938 106.578125 C 280.085938 91.101562 280.074219 78.449219 280.0625 78.449219 C 280.039062 78.457031 279.648438 78.820312 279.191406 79.246094 Z M 279.191406 79.246094 "/>
<path style=" stroke:none;fill-rule:nonzero;fill:rgb(50.196078%,0%,0%);fill-opacity:1;" d="M 199.8125 79.199219 C 198.953125 80.015625 197.570312 81.035156 196.550781 81.632812 L 195.734375 82.089844 L 195.734375 116.4375 L 200.539062 116.4375 L 200.539062 97.5 C 200.539062 87.078125 200.527344 78.558594 200.515625 78.558594 C 200.496094 78.570312 200.183594 78.851562 199.8125 79.199219 Z M 199.8125 79.199219 "/>
<path style=" stroke:none;fill-rule:nonzero;fill:rgb(50.196078%,0%,0%);fill-opacity:1;" d="M 26.8125 97.710938 L 26.8125 116.550781 L 31.617188 116.550781 L 31.617188 82.425781 L 30.800781 81.941406 C 29.863281 81.386719 28.457031 80.34375 27.484375 79.480469 L 26.8125 78.875 Z M 26.8125 97.710938 "/>
<path style=" stroke:none;fill-rule:nonzero;fill:rgb(50.196078%,0%,0%);fill-opacity:1;" d="M 255.953125 97.65625 L 255.953125 116.4375 L 260.644531 116.4375 L 260.644531 82.15625 L 259.808594 81.699219 C 258.914062 81.207031 257.4375 80.164062 256.523438 79.367188 L 255.953125 78.875 Z M 255.953125 97.65625 "/>
<path style=" stroke:none;fill-rule:nonzero;fill:rgb(50.196078%,0%,0%);fill-opacity:1;" d="M 176.410156 97.710938 L 176.410156 116.4375 L 181.101562 116.4375 L 181.101562 82.292969 L 180.085938 81.707031 C 178.921875 81.046875 178.105469 80.464844 177.113281 79.601562 L 176.410156 78.984375 Z M 176.410156 97.710938 "/>
<path style=" stroke:none;fill-rule:nonzero;fill:rgb(50.196078%,0%,0%);fill-opacity:1;" d="M 50.164062 80.097656 C 49.359375 80.800781 47.605469 81.976562 46.789062 82.378906 L 46.253906 82.636719 L 46.253906 116.550781 L 50.945312 116.550781 L 50.945312 98.003906 C 50.945312 87.804688 50.933594 79.457031 50.921875 79.457031 C 50.898438 79.457031 50.566406 79.746094 50.164062 80.097656 Z M 50.164062 80.097656 "/>
<path style=" stroke:none;fill-rule:nonzero;fill:rgb(50.196078%,0%,0%);fill-opacity:1;" d="M 120.78125 82.3125 C 120.054688 84.007812 118.769531 85.902344 117.285156 87.46875 L 116.414062 88.398438 L 116.414062 116.214844 L 121.105469 116.214844 L 121.105469 98.957031 C 121.105469 89.464844 121.09375 81.699219 121.082031 81.699219 C 121.0625 81.699219 120.925781 81.976562 120.78125 82.3125 Z M 120.78125 82.3125 "/>
<path style=" stroke:none;fill-rule:nonzero;fill:rgb(50.196078%,0%,0%);fill-opacity:1;" d="M 106.46875 98.976562 L 106.46875 116.214844 L 111.164062 116.214844 L 111.164062 88.355469 L 110.425781 87.636719 C 109.039062 86.269531 107.800781 84.53125 106.964844 82.761719 L 106.46875 81.753906 Z M 106.46875 98.976562 "/>
<path style=" stroke:none;fill-rule:nonzero;fill:rgb(50.196078%,0%,0%);fill-opacity:1;" d="M 265.449219 100.019531 L 265.449219 116.4375 L 270.140625 116.4375 L 270.140625 83.601562 L 269.839844 83.679688 C 269.425781 83.78125 266.398438 83.78125 265.875 83.679688 L 265.449219 83.59375 Z M 265.449219 100.019531 "/>
<path style=" stroke:none;fill-rule:nonzero;fill:rgb(50.196078%,0%,0%);fill-opacity:1;" d="M 185.792969 100.074219 L 185.792969 116.4375 L 190.59375 116.4375 L 190.59375 83.703125 L 190.183594 83.792969 C 189.648438 83.902344 186.765625 83.894531 186.214844 83.792969 L 185.792969 83.703125 Z M 185.792969 100.074219 "/>
<path style=" stroke:none;fill-rule:nonzero;fill:rgb(50.196078%,0%,0%);fill-opacity:1;" d="M 36.757812 100.324219 L 36.757812 116.550781 L 41.558594 116.550781 L 41.558594 84.09375 L 40.921875 84.175781 C 40.566406 84.21875 39.773438 84.253906 39.15625 84.253906 C 38.542969 84.253906 37.75 84.21875 37.40625 84.175781 L 36.757812 84.09375 Z M 36.757812 100.324219 "/>
<path style=" stroke:none;fill-rule:nonzero;fill:rgb(50.196078%,0%,0%);fill-opacity:1;" d="M 195.734375 128.261719 L 195.734375 134.59375 L 200.539062 134.59375 L 200.539062 121.929688 L 195.734375 121.929688 Z M 195.734375 128.261719 "/>
<path style=" stroke:none;fill-rule:nonzero;fill:rgb(50.196078%,0%,0%);fill-opacity:1;" d="M 260.667969 128.285156 L 260.703125 134.652344 L 263.082031 134.683594 L 265.449219 134.707031 L 265.449219 121.929688 L 260.644531 121.929688 Z M 260.667969 128.285156 "/>
<path style=" stroke:none;fill-rule:nonzero;fill:rgb(50.196078%,0%,0%);fill-opacity:1;" d="M 26.8125 128.429688 L 26.8125 134.820312 L 31.617188 134.820312 L 31.617188 122.042969 L 26.8125 122.042969 Z M 26.8125 128.429688 "/>
<path style=" stroke:none;fill-rule:nonzero;fill:rgb(50.196078%,0%,0%);fill-opacity:1;" d="M 16.308594 151.011719 L 16.308594 153.53125 L 20.644531 153.554688 L 24.96875 153.589844 L 25.003906 166.003906 L 25.027344 178.414062 L 30.945312 178.414062 L 30.96875 166.003906 L 31 153.589844 L 35.335938 153.554688 L 39.660156 153.53125 L 39.660156 148.488281 L 16.308594 148.488281 Z M 16.308594 151.011719 "/>
<path style=" stroke:none;fill-rule:nonzero;fill:rgb(50.196078%,0%,0%);fill-opacity:1;" d="M 56.644531 163.449219 L 56.644531 178.414062 L 62.5625 178.414062 L 62.5625 148.488281 L 56.644531 148.488281 Z M 56.644531 163.449219 "/>
<path style=" stroke:none;fill-rule:nonzero;fill:rgb(50.196078%,0%,0%);fill-opacity:1;" d="M 81.667969 163.4375 L 81.667969 178.414062 L 87.589844 178.414062 L 87.589844 165.839844 L 89.074219 165.917969 C 91.511719 166.050781 92.148438 166.242188 93.164062 167.164062 C 93.910156 167.84375 94.640625 168.851562 98.070312 174.007812 L 100.996094 178.414062 L 104.515625 178.414062 C 106.445312 178.414062 108.035156 178.390625 108.035156 178.359375 C 108.035156 178.242188 103.589844 171.09375 102.738281 169.851562 C 101.601562 168.167969 100.390625 166.878906 99.097656 165.960938 C 98.539062 165.570312 98.125 165.234375 98.167969 165.222656 C 98.222656 165.199219 98.742188 165.066406 99.332031 164.917969 C 102.015625 164.246094 103.8125 162.890625 104.851562 160.761719 C 105.476562 159.496094 105.621094 158.746094 105.621094 156.894531 C 105.621094 155.082031 105.488281 154.371094 104.863281 153.027344 C 103.878906 150.921875 102.167969 149.523438 99.933594 149.003906 C 98.214844 148.613281 97.363281 148.566406 89.523438 148.523438 L 81.667969 148.46875 Z M 95.789062 153.632812 C 96.839844 153.722656 97.097656 153.78125 97.734375 154.105469 C 98.617188 154.550781 99.117188 155.167969 99.386719 156.078125 C 99.632812 156.929688 99.554688 158.207031 99.210938 159.003906 C 98.871094 159.773438 98.035156 160.539062 97.277344 160.761719 C 96.371094 161.03125 94.417969 161.15625 90.863281 161.15625 L 87.589844 161.15625 L 87.589844 153.53125 L 91.085938 153.542969 C 92.996094 153.542969 95.121094 153.589844 95.789062 153.632812 Z M 95.789062 153.632812 "/>
<path style=" stroke:none;fill-rule:nonzero;fill:rgb(50.196078%,0%,0%);fill-opacity:1;" d="M 124.589844 158.710938 C 124.636719 167.8125 124.65625 169.101562 124.835938 170.34375 C 125.164062 172.628906 125.6875 173.929688 126.847656 175.410156 C 128.066406 176.945312 130.132812 178.109375 132.523438 178.59375 C 133.953125 178.871094 137.886719 178.9375 139.539062 178.703125 C 143.449219 178.132812 146.144531 176.082031 147.261719 172.84375 C 147.898438 170.980469 148.03125 168.359375 148.03125 157.308594 L 148.03125 148.488281 L 142.132812 148.488281 L 142.074219 158.542969 C 142.042969 165.277344 141.976562 168.898438 141.898438 169.480469 C 141.707031 170.722656 141.417969 171.429688 140.757812 172.171875 C 139.730469 173.335938 138.3125 173.78125 135.976562 173.671875 C 134.078125 173.59375 132.871094 173.097656 131.875 171.992188 C 131.40625 171.476562 130.878906 170.421875 130.703125 169.613281 C 130.601562 169.222656 130.558594 166.027344 130.523438 158.769531 L 130.476562 148.488281 L 124.558594 148.488281 Z M 124.589844 158.710938 "/>
<path style=" stroke:none;fill-rule:nonzero;fill:rgb(50.196078%,0%,0%);fill-opacity:1;" d="M 167.582031 163.449219 L 167.582031 178.414062 L 173.503906 178.414062 L 173.503906 167.117188 L 177.613281 167.058594 C 180.597656 167.027344 182.019531 166.960938 182.808594 166.824219 C 184.785156 166.5 186.261719 165.75 187.636719 164.359375 C 189.054688 162.925781 189.792969 161.289062 190.039062 159.023438 C 190.261719 156.984375 189.902344 154.609375 189.167969 153.128906 C 188.074219 150.96875 186.046875 149.351562 183.824219 148.882812 C 182.519531 148.613281 179.378906 148.488281 173.3125 148.488281 L 167.582031 148.488281 Z M 180.542969 153.757812 C 181.390625 153.902344 182.453125 154.453125 182.945312 155 C 184.585938 156.828125 184.21875 159.84375 182.21875 161.15625 C 181.125 161.847656 179.792969 162.050781 175.941406 162.050781 L 173.503906 162.050781 L 173.503906 157.871094 C 173.503906 155.5625 173.535156 153.644531 173.59375 153.589844 C 173.691406 153.476562 179.746094 153.625 180.542969 153.757812 Z M 180.542969 153.757812 "/>
<path style=" stroke:none;fill-rule:nonzero;fill:rgb(50.196078%,0%,0%);fill-opacity:1;" d="M 213.621094 148.734375 C 213.566406 148.882812 211.007812 155.5625 207.925781 163.585938 C 204.851562 171.609375 202.328125 178.234375 202.328125 178.300781 C 202.328125 178.378906 203.355469 178.414062 205.445312 178.414062 L 208.5625 178.414062 L 208.851562 177.59375 C 209.019531 177.15625 209.566406 175.621094 210.070312 174.207031 L 211 171.632812 L 216.863281 171.597656 L 222.726562 171.574219 L 223.777344 174.34375 C 224.347656 175.878906 224.929688 177.402344 225.0625 177.742188 L 225.296875 178.359375 L 228.550781 178.390625 L 231.800781 178.414062 L 231.039062 176.484375 C 230.625 175.421875 229.128906 171.621094 227.710938 168.046875 C 226.300781 164.46875 224.300781 159.40625 223.273438 156.785156 C 222.238281 154.160156 221.085938 151.238281 220.707031 150.28125 L 220.023438 148.546875 L 216.875 148.511719 L 213.722656 148.488281 Z M 218.808594 161.019531 C 219.902344 164 220.761719 166.453125 220.738281 166.488281 C 220.707031 166.511719 218.925781 166.523438 216.773438 166.511719 L 212.863281 166.476562 L 214.816406 161.007812 C 215.890625 158.003906 216.785156 155.5625 216.796875 155.574219 C 216.820312 155.59375 217.710938 158.039062 218.808594 161.019531 Z M 218.808594 161.019531 "/>
<path style=" stroke:none;fill-rule:nonzero;fill:rgb(50.196078%,0%,0%);fill-opacity:1;" d="M 243.105469 151.011719 L 243.105469 153.53125 L 247.441406 153.554688 L 251.761719 153.589844 L 251.796875 166.003906 L 251.820312 178.414062 L 257.742188 178.414062 L 257.765625 166.003906 L 257.796875 153.589844 L 262.132812 153.554688 L 266.453125 153.53125 L 266.453125 148.488281 L 243.105469 148.488281 Z M 243.105469 151.011719 "/>
<path style=" stroke:none;fill-rule:nonzero;fill:rgb(50.196078%,0%,0%);fill-opacity:1;" d="M 283.4375 163.449219 L 283.4375 178.414062 L 289.359375 178.414062 L 289.359375 148.488281 L 283.4375 148.488281 Z M 283.4375 163.449219 "/>
</g>
</svg>
